<?xml version="1.0" encoding="UTF-8"?>
<svg version="1.1" xmlns="http://www.w3.org/2000/svg" width="128" height="128">
<path d="M0 0 C0.66 0.33 1.32 0.66 2 1 C2.62209225 9.89937525 2.62209225 9.89937525 0.375 13.875 C-2 16 -2 16 -4.875 17.875 C-8.05391085 20.03665938 -9.94994008 22.18187121 -12.3515625 25.1171875 C-15.23235891 28.40757582 -18.48531134 31.39564737 -22 34 C-22.66 34 -23.32 34 -24 34 C-24.33 34.99 -24.66 35.98 -25 37 C-16.75 37.33 -8.5 37.66 0 38 C0 35.03 0 32.06 0 29 C6.90948435 27.72046586 13.80359389 27.81620254 20.8125 27.8125 C22.05193359 27.80025391 23.29136719 27.78800781 24.56835938 27.77539062 C25.74849609 27.77345703 26.92863281 27.77152344 28.14453125 27.76953125 C29.75871948 27.76336792 29.75871948 27.76336792 31.40551758 27.75708008 C34 28 34 28 36 30 C36.47707476 34.21416041 36.43171409 36.32364792 34.125 39.9375 C32 42 32 42 30 42 C30 42.66 30 43.32 30 44 C29.34 44 28.68 44 28 44 C27.67 44.99 27.34 45.98 27 47 C21.53488372 52 21.53488372 52 19 52 C18.67 52.99 18.34 53.98 18 55 C16.35 56.32 14.7 57.64 13 59 C23.89 59.495 23.89 59.495 35 60 C36 67 36 67 35 71 C21.8 71 8.6 71 -5 71 C-5 73.31 -5 75.62 -5 78 C-7.01171875 80.51171875 -7.01171875 80.51171875 -9.6875 82.6875 C-10.55761719 83.41324219 -11.42773438 84.13898438 -12.32421875 84.88671875 C-14.13240636 86.31479101 -15.94773552 87.73386008 -17.76953125 89.14453125 C-20.07025182 90.80583003 -20.07025182 90.80583003 -21 93 C-16.6758505 94.15310653 -12.54419598 94.04246618 -8.109375 93.9375 C-6 94 -6 94 -5 95 C-4.85884839 97.67058851 -4.95752893 100.32432238 -5 103 C-9.5206665 103.02468857 -14.0412939 103.04285449 -18.56201172 103.05493164 C-20.10043013 103.05996552 -21.63884375 103.06679308 -23.17724609 103.07543945 C-25.38640526 103.08754639 -27.59550126 103.09323769 -29.8046875 103.09765625 C-30.49432587 103.10281754 -31.18396423 103.10797882 -31.89450073 103.11329651 C-36.77225659 103.11387171 -36.77225659 103.11387171 -39 102 C-39.41888987 99.13758589 -39.53400587 96.92297312 -38.05078125 94.359375 C-33.48516016 88.76027521 -27.6282904 84.46811469 -22 80 C-21.67 79.67 -21.34 79.34 -21 79 C-22.80597656 78.92652344 -22.80597656 78.92652344 -24.6484375 78.8515625 C-26.22398198 78.77653657 -27.79950166 78.70098867 -29.375 78.625 C-30.1690625 78.5940625 -30.963125 78.563125 -31.78125 78.53125 C-37.7734375 78.2265625 -37.7734375 78.2265625 -40 76 C-39.34 73.69 -38.68 71.38 -38 69 C-27.44 69 -16.88 69 -6 69 C-6.495 65.535 -6.495 65.535 -7 62 C-6.505 61.01 -6.505 61.01 -6 60 C-5.34 60 -4.68 60 -4 60 C-3.67 59.01 -3.34 58.02 -3 57 C2.46511628 52 2.46511628 52 5 52 C5.2475 51.38125 5.495 50.7625 5.75 50.125 C7.20628639 47.64931313 8.37812506 47.04874998 11 46 C11 45.34 11 44.68 11 44 C12.62553283 42.29319053 14.29115995 40.62339805 16 39 C14.205625 39.2475 14.205625 39.2475 12.375 39.5 C8.89451285 39.93970567 5.51228512 40.08780713 2 40 C2.020625 41.27875 2.04125 42.5575 2.0625 43.875 C2.125 47.75 2.125 47.75 1 50 C-13.85 50 -28.7 50 -44 50 C-44 50.66 -44 51.32 -44 52 C-44.66 52 -45.32 52 -46 52 C-48.50081439 47.29258468 -47.98296857 44.07867094 -47 39 C-46.34 38.01 -45.68 37.02 -45 36 C-44.34 36 -43.68 36 -43 36 C-42.67 35.01 -42.34 34.02 -42 33 C-40.3984375 31.38671875 -40.3984375 31.38671875 -38.375 29.6875 C-37.65828125 29.08164062 -36.9415625 28.47578125 -36.203125 27.8515625 C-35.47609375 27.24054687 -34.7490625 26.62953125 -34 26 C-33.33484375 25.40960938 -32.6696875 24.81921875 -31.984375 24.2109375 C-31.37078125 23.66695312 -30.7571875 23.12296875 -30.125 22.5625 C-29.57070313 22.06878906 -29.01640625 21.57507813 -28.4453125 21.06640625 C-27 20 -27 20 -25 20 C-24.67 19.01 -24.34 18.02 -24 17 C-23.34 17 -22.68 17 -22 17 C-21.67 15.68 -21.34 14.36 -21 13 C-21.99 13.33 -22.98 13.66 -24 14 C-25.43394477 14.09179741 -26.87171527 14.13066539 -28.30859375 14.1328125 C-29.55286133 14.13474609 -29.55286133 14.13474609 -30.82226562 14.13671875 C-31.68529297 14.13285156 -32.54832031 14.12898438 -33.4375 14.125 C-34.29666016 14.12886719 -35.15582031 14.13273437 -36.04101562 14.13671875 C-36.87181641 14.13542969 -37.70261719 14.13414063 -38.55859375 14.1328125 C-39.31454834 14.13168457 -40.07050293 14.13055664 -40.84936523 14.12939453 C-43 14 -43 14 -47 13 C-47.33 9.37 -47.66 5.74 -48 2 C-45.60329316 0.80164658 -44.22101577 0.91259797 -41.55029297 0.97827148 C-40.16908768 1.00841591 -40.16908768 1.00841591 -38.75997925 1.03916931 C-37.76410797 1.06620438 -36.76823669 1.09323944 -35.7421875 1.12109375 C-34.21490524 1.15651024 -34.21490524 1.15651024 -32.6567688 1.19264221 C-29.39604095 1.26938121 -26.13554451 1.35336156 -22.875 1.4375 C-20.66798018 1.49071043 -18.46094897 1.54345089 -16.25390625 1.59570312 C-10.83579347 1.72501016 -5.41785337 1.86026722 0 2 C0 1.34 0 0.68 0 0 Z " fill="#536D9F" transform="translate(72,12)"/>
<path d="M0 0 C0.66 0.33 1.32 0.66 2 1 C2.62209225 9.89937525 2.62209225 9.89937525 0.375 13.875 C-2 16 -2 16 -4.875 17.875 C-8.05391085 20.03665938 -9.94994008 22.18187121 -12.3515625 25.1171875 C-15.23235891 28.40757582 -18.48531134 31.39564737 -22 34 C-22.66 34 -23.32 34 -24 34 C-24 34.66 -24 35.32 -24 36 C-25.98 36.495 -25.98 36.495 -28 37 C-28 37.66 -28 38.32 -28 39 C-18.76 39 -9.52 39 0 39 C0 42.3 0 45.6 0 49 C-15.18 49 -30.36 49 -46 49 C-46 45.04 -46 41.08 -46 37 C-44.515 36.505 -44.515 36.505 -43 36 C-42.67 35.01 -42.34 34.02 -42 33 C-40.3984375 31.38671875 -40.3984375 31.38671875 -38.375 29.6875 C-37.65828125 29.08164062 -36.9415625 28.47578125 -36.203125 27.8515625 C-35.47609375 27.24054687 -34.7490625 26.62953125 -34 26 C-33.33484375 25.40960938 -32.6696875 24.81921875 -31.984375 24.2109375 C-31.37078125 23.66695312 -30.7571875 23.12296875 -30.125 22.5625 C-29.57070313 22.06878906 -29.01640625 21.57507813 -28.4453125 21.06640625 C-27 20 -27 20 -25 20 C-24.67 19.01 -24.34 18.02 -24 17 C-23.34 17 -22.68 17 -22 17 C-21.67 15.68 -21.34 14.36 -21 13 C-21.99 13.33 -22.98 13.66 -24 14 C-25.43394477 14.09179741 -26.87171527 14.13066539 -28.30859375 14.1328125 C-29.55286133 14.13474609 -29.55286133 14.13474609 -30.82226562 14.13671875 C-31.68529297 14.13285156 -32.54832031 14.12898438 -33.4375 14.125 C-34.29666016 14.12886719 -35.15582031 14.13273437 -36.04101562 14.13671875 C-36.87181641 14.13542969 -37.70261719 14.13414063 -38.55859375 14.1328125 C-39.31454834 14.13168457 -40.07050293 14.13055664 -40.84936523 14.12939453 C-43 14 -43 14 -47 13 C-47.33 9.37 -47.66 5.74 -48 2 C-45.60329316 0.80164658 -44.22101577 0.91259797 -41.55029297 0.97827148 C-40.16908768 1.00841591 -40.16908768 1.00841591 -38.75997925 1.03916931 C-37.76410797 1.06620438 -36.76823669 1.09323944 -35.7421875 1.12109375 C-34.21490524 1.15651024 -34.21490524 1.15651024 -32.6567688 1.19264221 C-29.39604095 1.26938121 -26.13554451 1.35336156 -22.875 1.4375 C-20.66798018 1.49071043 -18.46094897 1.54345089 -16.25390625 1.59570312 C-10.83579347 1.72501016 -5.41785337 1.86026722 0 2 C0 1.34 0 0.68 0 0 Z " fill="#5773A7" transform="translate(72,12)"/>
<path d="M0 0 C10.23 0 20.46 0 31 0 C31 7.89070147 31 7.89070147 26.8125 12.1875 C26.03519531 13.00605469 25.25789063 13.82460937 24.45703125 14.66796875 C22 17 22 17 19.26171875 19.17578125 C16.92649716 20.80081156 16.92649716 20.80081156 16 23 C20.3241495 24.15310653 24.45580402 24.04246618 28.890625 23.9375 C31 24 31 24 32 25 C32.14115161 27.67058851 32.04247107 30.32432238 32 33 C27.4793335 33.02468857 22.9587061 33.04285449 18.43798828 33.05493164 C16.89956987 33.05996552 15.36115625 33.06679308 13.82275391 33.07543945 C11.61359474 33.08754639 9.40449874 33.09323769 7.1953125 33.09765625 C6.16085495 33.10539818 6.16085495 33.10539818 5.10549927 33.11329651 C0.22774341 33.11387171 0.22774341 33.11387171 -2 32 C-2.43448977 29.0309866 -2.5345908 26.85649494 -0.91015625 24.25390625 C3.87490303 18.5549895 8.97200702 13.61039739 16 11 C16.66 10.01 17.32 9.02 18 8 C12.06 7.67 6.12 7.34 0 7 C0 4.69 0 2.38 0 0 Z " fill="#5975AB" transform="translate(35,82)"/>
<path d="M0 0 C14.52 0 29.04 0 44 0 C44 9.02536999 43.08219161 11.35003626 37.625 17.8125 C34.75723436 20.2023047 32.65806801 21.28429104 29 22 C28.01 21.34 27.02 20.68 26 20 C26 19.01 26 18.02 26 17 C25.34 16.34 24.68 15.68 24 15 C24.66 14.34 25.32 13.68 26 13 C26.33 11.68 26.66 10.36 27 9 C17.76 9 8.52 9 -1 9 C-0.67 6.03 -0.34 3.06 0 0 Z " fill="#5976AD" transform="translate(27,15)"/>
<path d="M0 0 C10.23 0 20.46 0 31 0 C31 7.97520302 31 7.97520302 26.62890625 12.48828125 C21.82703828 16.94469109 18.40641675 17.30151059 12.01171875 17.10546875 C11.34785156 17.07066406 10.68398438 17.03585938 10 17 C11.1446875 15.88625 11.1446875 15.88625 12.3125 14.75 C15.19792941 11.91669695 15.19792941 11.91669695 18 8 C12.06 7.67 6.12 7.34 0 7 C0 4.69 0 2.38 0 0 Z " fill="#5A76A6" transform="translate(35,82)"/>
<path d="M0 0 C10.89 0 21.78 0 33 0 C33 8 33 8 31.625 10.5625 C27.47770395 12.83363831 23.52958594 11.79527081 19 11 C18.67 10.01 18.34 9.02 18 8 C12.06 8 6.12 8 0 8 C0 5.36 0 2.72 0 0 Z " fill="#5B77AE" transform="translate(73,42)"/>
<path d="M0 0 C2.27818415 -0.00218869 4.5558858 -0.0203553 6.83398438 -0.03930664 C8.27669105 -0.04224019 9.71940003 -0.04422524 11.16210938 -0.04516602 C12.47953125 -0.0492749 13.79695313 -0.05338379 15.15429688 -0.05761719 C18.28710938 0.18530273 18.28710938 0.18530273 20.28710938 2.18530273 C20.77313525 6.47853132 20.74952545 8.50612912 18.28710938 12.12280273 C17.29710938 13.14374023 17.29710938 13.14374023 16.28710938 14.18530273 C15.29710938 13.69030273 15.29710938 13.69030273 14.28710938 13.18530273 C14.76148437 12.85530273 15.23585938 12.52530273 15.72460938 12.18530273 C18.06188966 9.54615911 18.06188966 9.54615911 18.28710938 2.18530273 C7.39710937 2.18530273 -3.49289063 2.18530273 -14.71289062 2.18530273 C-14.71289062 4.82530273 -14.71289062 7.46530273 -14.71289062 10.18530273 C-8.77289063 10.18530273 -2.83289063 10.18530273 3.28710938 10.18530273 C3.28710938 11.17530273 3.28710938 12.16530273 3.28710938 13.18530273 C1.75585937 14.57202148 1.75585937 14.57202148 -0.21289062 15.87280273 C-0.86257812 16.30979492 -1.51226562 16.74678711 -2.18164062 17.19702148 C-2.68695313 17.5231543 -3.19226563 17.84928711 -3.71289062 18.18530273 C-4.20789063 17.19530273 -4.20789063 17.19530273 -4.71289062 16.18530273 C-3.06289062 14.53530273 -1.41289063 12.88530273 0.28710938 11.18530273 C-0.90914062 11.35030273 -2.10539062 11.51530273 -3.33789062 11.68530273 C-6.81837778 12.12500841 -10.20060551 12.27310986 -13.71289062 12.18530273 C-13.69226563 13.46405273 -13.67164063 14.74280273 -13.65039062 16.06030273 C-13.58789062 19.93530273 -13.58789062 19.93530273 -14.71289062 22.18530273 C-29.56289063 22.18530273 -44.41289063 22.18530273 -59.71289062 22.18530273 C-59.71289062 22.84530273 -59.71289062 23.50530273 -59.71289062 24.18530273 C-60.37289062 24.18530273 -61.03289063 24.18530273 -61.71289062 24.18530273 C-64.20176434 19.50036397 -63.56976835 16.24088133 -62.71289062 11.18530273 C-62.38289063 11.18530273 -62.05289063 11.18530273 -61.71289062 11.18530273 C-61.71289062 14.48530273 -61.71289062 17.78530273 -61.71289062 21.18530273 C-46.53289063 21.18530273 -31.35289063 21.18530273 -15.71289062 21.18530273 C-15.71289062 17.88530273 -15.71289062 14.58530273 -15.71289062 11.18530273 C-24.95289063 11.18530273 -34.19289063 11.18530273 -43.71289062 11.18530273 C-43.71289062 10.52530273 -43.71289062 9.86530273 -43.71289062 9.18530273 C-29.85289063 9.68030273 -29.85289063 9.68030273 -15.71289062 10.18530273 C-15.71289062 7.21530273 -15.71289062 4.24530273 -15.71289062 1.18530273 C-11.2085821 -1.06685153 -5.01432851 -0.00054174 0 0 Z " fill="#1D2A47" transform="translate(87.712890625,39.814697265625)"/>
<path d="M0 0 C8.25 0 16.5 0 25 0 C25 2.64 25 5.28 25 8 C16.75 8 8.5 8 0 8 C0.33 6.35 0.66 4.7 1 3 C0.34 2.67 -0.32 2.34 -1 2 C-0.67 1.34 -0.34 0.68 0 0 Z " fill="#5B78AE" transform="translate(81,73)"/>
<path d="M0 0 C0.66 0.33 1.32 0.66 2 1 C1.34 2.32 0.68 3.64 0 5 C-0.66 5 -1.32 5 -2 5 C-2 7.64 -2 10.28 -2 13 C10.87 13 23.74 13 37 13 C37 10.03 37 7.06 37 4 C29.08 4 21.16 4 13 4 C13 3.34 13 2.68 13 2 C21.25 2.33 29.5 2.66 38 3 C39 10 39 10 38 14 C24.8 14 11.6 14 -2 14 C-2 16.31 -2 18.62 -2 21 C-2.99 21 -3.98 21 -5 21 C-4.505 20.505 -4.505 20.505 -4 20 C-3.67 17.69 -3.34 15.38 -3 13 C-13.23 13 -23.46 13 -34 13 C-34 15.31 -34 17.62 -34 20 C-27.73 20 -21.46 20 -15 20 C-15.99 21.65 -16.98 23.3 -18 25 C-18.99 25 -19.98 25 -21 25 C-20.01 24.01 -19.02 23.02 -18 22 C-19.80597656 21.92652344 -19.80597656 21.92652344 -21.6484375 21.8515625 C-23.22398198 21.77653657 -24.79950166 21.70098867 -26.375 21.625 C-27.1690625 21.5940625 -27.963125 21.563125 -28.78125 21.53125 C-34.7734375 21.2265625 -34.7734375 21.2265625 -37 19 C-36.01 15.535 -36.01 15.535 -35 12 C-24.44 12 -13.88 12 -3 12 C-3.495 8.535 -3.495 8.535 -4 5 C-3.67 4.34 -3.34 3.68 -3 3 C-2.34 3 -1.68 3 -1 3 C-0.67 2.01 -0.34 1.02 0 0 Z " fill="#0C162F" transform="translate(69,69)"/>
<path d="M0 0 C0.66 0.33 1.32 0.66 2 1 C2.63019694 10.01531729 2.63019694 10.01531729 0 14.125 C-0.66 14.74375 -1.32 15.3625 -2 16 C-2.66 15.67 -3.32 15.34 -4 15 C-3.690625 14.505 -3.38125 14.01 -3.0625 13.5 C-1.53057551 10.21258211 -1.53057551 10.21258211 -1 3 C-15.52 3 -30.04 3 -45 3 C-45.33 5.97 -45.66 8.94 -46 12 C-36.76 12 -27.52 12 -18 12 C-20 16 -20 16 -22 17 C-21.67 15.68 -21.34 14.36 -21 13 C-21.99 13.33 -22.98 13.66 -24 14 C-25.43394477 14.09179741 -26.87171527 14.13066539 -28.30859375 14.1328125 C-29.55286133 14.13474609 -29.55286133 14.13474609 -30.82226562 14.13671875 C-31.68529297 14.13285156 -32.54832031 14.12898438 -33.4375 14.125 C-34.29666016 14.12886719 -35.15582031 14.13273437 -36.04101562 14.13671875 C-36.87181641 14.13542969 -37.70261719 14.13414063 -38.55859375 14.1328125 C-39.31454834 14.13168457 -40.07050293 14.13055664 -40.84936523 14.12939453 C-43 14 -43 14 -47 13 C-47.33 9.37 -47.66 5.74 -48 2 C-45.60329316 0.80164658 -44.22101577 0.91259797 -41.55029297 0.97827148 C-40.16908768 1.00841591 -40.16908768 1.00841591 -38.75997925 1.03916931 C-37.76410797 1.06620438 -36.76823669 1.09323944 -35.7421875 1.12109375 C-34.21490524 1.15651024 -34.21490524 1.15651024 -32.6567688 1.19264221 C-29.39604095 1.26938121 -26.13554451 1.35336156 -22.875 1.4375 C-20.66798018 1.49071043 -18.46094897 1.54345089 -16.25390625 1.59570312 C-10.83579347 1.72501016 -5.41785337 1.86026722 0 2 C0 1.34 0 0.68 0 0 Z " fill="#556992" transform="translate(72,12)"/>
<path d="M0 0 C9.9 0 19.8 0 30 0 C29.67 0.99 29.34 1.98 29 3 C21.08 3.495 21.08 3.495 13 4 C13.66 4.66 14.32 5.32 15 6 C10.05 6 5.1 6 0 6 C0 4.02 0 2.04 0 0 Z " fill="#5B78AF" transform="translate(35,83)"/>
<path d="M0 0 C1.32 0 2.64 0 4 0 C4.33 1.65 4.66 3.3 5 5 C1.85408067 7.80045623 -0.067064 8.35261589 -4.25 8.1875 C-5.14203125 8.16042969 -6.0340625 8.13335937 -6.953125 8.10546875 C-7.62859375 8.07066406 -8.3040625 8.03585938 -9 8 C-3.85714286 2.42857143 -3.85714286 2.42857143 0 2 C0 1.34 0 0.68 0 0 Z " fill="#5B78AD" transform="translate(54,91)"/>
<path d="M0 0 C3.63 0 7.26 0 11 0 C10.67 1.65 10.34 3.3 10 5 C6.37 5 2.74 5 -1 5 C-1.33 4.01 -1.66 3.02 -2 2 C-1.34 1.67 -0.68 1.34 0 1 C0 0.67 0 0.34 0 0 Z " fill="#5B78AF" transform="translate(55,108)"/>
<path d="M0 0 C0.66 0 1.32 0 2 0 C2 3.3 2 6.6 2 10 C11.24 10 20.48 10 30 10 C28 14 28 14 26 15 C26.33 13.68 26.66 12.36 27 11 C26.01 11.33 25.02 11.66 24 12 C22.56605523 12.09179741 21.12828473 12.13066539 19.69140625 12.1328125 C18.44713867 12.13474609 18.44713867 12.13474609 17.17773438 12.13671875 C16.31470703 12.13285156 15.45167969 12.12898438 14.5625 12.125 C13.70333984 12.12886719 12.84417969 12.13273437 11.95898438 12.13671875 C11.12818359 12.13542969 10.29738281 12.13414063 9.44140625 12.1328125 C8.68545166 12.13168457 7.92949707 12.13055664 7.15063477 12.12939453 C5 12 5 12 1 11 C0.67 7.37 0.34 3.74 0 0 Z " fill="#1B253E" transform="translate(24,14)"/>
<path d="M0 0 C0.66 0.33 1.32 0.66 2 1 C1.21625 1.886875 0.4325 2.77375 -0.375 3.6875 C-2.57156991 6.30720519 -3.93790341 8.71715601 -5 12 C-6.65 12 -8.3 12 -10 12 C-10.33 14.31 -10.66 16.62 -11 19 C-11.66 19 -12.32 19 -13 19 C-13.43448977 16.0309866 -13.5345908 13.85649494 -11.91015625 11.25390625 C-8.36604273 7.03293286 -4.27931266 3.45636791 0 0 Z " fill="#2D395D" transform="translate(46,95)"/>
<path d="M0 0 C1.670625 0.2475 1.670625 0.2475 3.375 0.5 C7.60300191 1.0445727 11.73956082 1.04147638 15.99609375 0.9375 C18 1 18 1 19 2 C19.14115161 4.67058851 19.04247107 7.32432238 19 10 C18.01 9.67 17.02 9.34 16 9 C16.66 9 17.32 9 18 9 C18 7.02 18 5.04 18 3 C11.73 3 5.46 3 -1 3 C-0.67 2.01 -0.34 1.02 0 0 Z " fill="#223254" transform="translate(48,105)"/>
<path d="M0 0 C2 3.75 2 3.75 2 6 C11.57 5.67 21.14 5.34 31 5 C31 5.66 31 6.32 31 7 C15.655 7.495 15.655 7.495 0 8 C0 5.36 0 2.72 0 0 Z " fill="#556891" transform="translate(35,107)"/>
<path d="M0 0 C13.2 0 26.4 0 40 0 C40 0.33 40 0.66 40 1 C26.8 1 13.6 1 0 1 C0 0.67 0 0.34 0 0 Z " fill="#000207" transform="translate(32,9)"/>
<path d="M0 0 C0.66 0.33 1.32 0.66 2 1 C1.28972656 1.75925781 0.57945313 2.51851562 -0.15234375 3.30078125 C-1.08097834 4.30445702 -2.00935009 5.30837601 -2.9375 6.3125 C-3.40607422 6.81201172 -3.87464844 7.31152344 -4.35742188 7.82617188 C-6.55697103 10.21561016 -7.96026813 11.88080438 -9 15 C-9.33 14.34 -9.66 13.68 -10 13 C-10.99 13.33 -11.98 13.66 -13 14 C-12.67 13.01 -12.34 12.02 -12 11 C-11.34 11 -10.68 11 -10 11 C-9.67 10.01 -9.34 9.02 -9 8 C-7.1875 6.2109375 -7.1875 6.2109375 -5 4.375 C-3.9171875 3.45847656 -3.9171875 3.45847656 -2.8125 2.5234375 C-2.214375 2.02070312 -1.61625 1.51796875 -1 1 C-0.67 0.67 -0.34 0.34 0 0 Z " fill="#2A3858" transform="translate(39,37)"/>
<path d="M0 0 C0.66 0.33 1.32 0.66 2 1 C2.63019694 10.01531729 2.63019694 10.01531729 0 14.125 C-0.66 14.74375 -1.32 15.3625 -2 16 C-2.66 15.67 -3.32 15.34 -4 15 C-3.69320312 14.45859375 -3.38640625 13.9171875 -3.0703125 13.359375 C-1.84371789 10.65549492 -1.36256224 8.17537342 -0.875 5.25 C-0.70742187 4.26515625 -0.53984375 3.2803125 -0.3671875 2.265625 C-0.24601562 1.51796875 -0.12484375 0.7703125 0 0 Z " fill="#303E62" transform="translate(72,12)"/>
<path d="M0 0 C10.56 0 21.12 0 32 0 C32 0.33 32 0.66 32 1 C21.44 1 10.88 1 0 1 C0 0.67 0 0.34 0 0 Z " fill="#000208" transform="translate(72,86)"/>
<path d="M0 0 C1.65 0 3.3 0 5 0 C5 1.32 5 2.64 5 4 C3 5.75 3 5.75 1 7 C0.67 4.69 0.34 2.38 0 0 Z " fill="#485F90" transform="translate(58,89)"/>
<path d="M0 0 C0.66 0.33 1.32 0.66 2 1 C-1.465 3.97 -1.465 3.97 -5 7 C-5.33 6.34 -5.66 5.68 -6 5 C-6.66 4.67 -7.32 4.34 -8 4 C-8 3.34 -8 2.68 -8 2 C-7.05125 2.04125 -6.1025 2.0825 -5.125 2.125 C-1.89755144 2.34973818 -1.89755144 2.34973818 0 0 Z " fill="#374A71" transform="translate(57,96)"/>
<path d="M0 0 C0.66 0.33 1.32 0.66 2 1 C1.34 2.32 0.68 3.64 0 5 C-0.66 5 -1.32 5 -2 5 C-2 7.31 -2 9.62 -2 12 C-2.66 11.34 -3.32 10.68 -4 10 C-3.625 6.375 -3.625 6.375 -3 3 C-2.34 3 -1.68 3 -1 3 C-0.67 2.01 -0.34 1.02 0 0 Z " fill="#273453" transform="translate(69,69)"/>
<path d="M0 0 C7.92 0 15.84 0 24 0 C24 0.33 24 0.66 24 1 C16.08 1 8.16 1 0 1 C0 0.67 0 0.34 0 0 Z " fill="#000108" transform="translate(40,118)"/>
<path d="M0 0 C0 3.38023517 -0.87455622 5.83468937 -2 9 C-3.32 8.67 -4.64 8.34 -6 8 C-4.55746343 4.63408134 -2.66735273 2.48952921 0 0 Z " fill="#5E79AE" transform="translate(48,31)"/>
<path d="M0 0 C2 1 2 1 2 1 Z " fill="#010206" transform="translate(32,117)"/>
<path d="" fill="#080407" transform="translate(0,0)"/>
<path d="M0 0 C2 1 2 1 2 1 Z " fill="#02020D" transform="translate(77,55)"/>
<path d="" fill="#0D070D" transform="translate(0,0)"/>
<path d="" fill="#090504" transform="translate(0,0)"/>
<path d="" fill="#09090B" transform="translate(0,0)"/>
<path d="" fill="#05030B" transform="translate(0,0)"/>
<path d="" fill="#06050C" transform="translate(0,0)"/>
<path d="" fill="#0A0C10" transform="translate(0,0)"/>
<path d="" fill="#090408" transform="translate(0,0)"/>
<path d="" fill="#050208" transform="translate(0,0)"/>
<path d="" fill="#0A0A0A" transform="translate(0,0)"/>
<path d="" fill="#0F0506" transform="translate(0,0)"/>
<path d="" fill="#04060A" transform="translate(0,0)"/>
<path d="" fill="#0A060E" transform="translate(0,0)"/>
<path d="" fill="#080808" transform="translate(0,0)"/>
<path d="" fill="#070508" transform="translate(0,0)"/>
<path d="" fill="#03090E" transform="translate(0,0)"/>
<path d="" fill="#07080C" transform="translate(0,0)"/>
<path d="" fill="#060F11" transform="translate(0,0)"/>
<path d="" fill="#060508" transform="translate(0,0)"/>
<path d="" fill="#090B0A" transform="translate(0,0)"/>
<path d="" fill="#04060A" transform="translate(0,0)"/>
</svg>
