<?xml version="1.0" encoding="UTF-8"?>
<svg version="1.1" xmlns="http://www.w3.org/2000/svg" width="200" height="200">
<path d="M0 0 C6.0911452 2.75632828 8.42428828 8.72768623 10.85174561 14.62835693 C14.29336768 23.9349084 14.01144479 33.76046321 14.1875 43.5625 C14.28578745 47.42222225 14.39859014 51.28142935 14.515625 55.140625 C14.5427356 56.07644409 14.56984619 57.01226318 14.59777832 57.97644043 C14.80554104 64.33741008 15.22079157 70.65204987 15.859375 76.984375 C15.935047 77.76935364 16.01071899 78.55433228 16.08868408 79.36309814 C16.66340771 84.62304467 16.66340771 84.62304467 18.9375 89.3125 C24.57811318 91.99908516 31.99472803 91.91082676 37.9375 90.3125 C39.65334151 89.2969677 39.65334151 89.2969677 40.9375 87.3125 C41.47054833 84.63359523 41.8240073 82.1404895 42.0625 79.43359375 C42.14105225 78.64109726 42.21960449 77.84860077 42.30053711 77.03208923 C43.27725906 66.60277476 43.63769045 56.13432331 44.04199219 45.6706543 C44.81900556 25.99047383 44.81900556 25.99047383 46.9375 17.3125 C47.10282227 16.62696045 47.26814453 15.9414209 47.43847656 15.23510742 C50.17390081 4.879761 50.17390081 4.879761 53.9375 1.53515625 C57.11237961 -0.10480914 59.35121815 -0.6875 62.9375 -0.6875 C62.9375 -0.0275 62.9375 0.6325 62.9375 1.3125 C63.62328125 1.52261719 64.3090625 1.73273437 65.015625 1.94921875 C68.8722279 3.74862304 71.59906796 6.23257191 74.6875 9.125 C75.61067017 9.98907471 75.61067017 9.98907471 76.55249023 10.87060547 C95.95325397 29.56297853 100.43950498 53.4429583 101.9375 79.3125 C102.01613281 80.44703613 102.09476563 81.58157227 102.17578125 82.75048828 C103.78504461 108.08615777 103.78504461 108.08615777 96.33886719 116.83447266 C95.39363826 117.84647344 94.4280563 118.83983634 93.44335938 119.81347656 C91.86454651 121.38512231 90.4102193 123.02623174 88.953125 124.7109375 C74.57830853 141.1453037 74.57830853 141.1453037 66.68359375 144.83203125 C62.7363281 146.55970337 62.7363281 146.55970337 57.9375 151.3125 C57.6075 158.9025 57.2775 166.4925 56.9375 174.3125 C38.1275 174.3125 19.3175 174.3125 -0.0625 174.3125 C-0.3925 166.7225 -0.7225 159.1325 -1.0625 151.3125 C-4.81343335 147.19175632 -6.50657577 145.79238673 -11.0625 143.3125 C-12.79069573 141.88109168 -14.47876571 140.39995998 -16.125 138.875 C-16.95257813 138.11703125 -17.78015625 137.3590625 -18.6328125 136.578125 C-19.83550781 135.45664062 -19.83550781 135.45664062 -21.0625 134.3125 C-21.80242188 133.62671875 -22.54234375 132.9409375 -23.3046875 132.234375 C-34.15874956 121.80520505 -44.72887917 110.29844196 -45.35302734 94.70507812 C-45.37935358 93.08477858 -45.3940333 91.46425742 -45.3984375 89.84375 C-45.4050943 88.96456909 -45.4117511 88.08538818 -45.41860962 87.17956543 C-45.42867343 85.32741362 -45.4334286 83.475226 -45.43310547 81.62304688 C-45.43744603 78.84701641 -45.47374211 76.0726218 -45.51171875 73.296875 C-45.66512215 49.08168929 -39.30791054 30.92631641 -22.3125 13.25 C-20.58351658 11.58210201 -18.83244501 9.93686512 -17.0625 8.3125 C-16.57700684 7.86326172 -16.09151367 7.41402344 -15.59130859 6.95117188 C-5.94788303 -1.77664038 -5.94788303 -1.77664038 0 0 Z " fill="#020102" transform="translate(72.0625,13.6875)"/>
<path d="M0 0 C9.24 0 18.48 0 28 0 C28.2475 2.083125 28.495 4.16625 28.75 6.3125 C30.11482503 15.75174443 32.12180259 24.12180259 39 31 C43.70119885 34.13413257 48.69253195 33.52411328 54.23193359 33.59033203 C56.22977815 33.62465261 58.2264701 33.71245443 60.22265625 33.80078125 C67.1951266 34.02790652 67.1951266 34.02790652 73.40551758 31.33520508 C81.15363467 22.72361423 83.22582088 10.89856082 86 0 C95.24 0 104.48 0 114 0 C115.20535714 26.38392857 115.20535714 26.38392857 110.0625 32.4375 C108.39910646 33.98466263 106.71157336 35.50631098 105 37 C103.57860872 38.81358999 102.1830534 40.64769193 100.8125 42.5 C97.2751731 46.81516842 93.47728068 50.3595576 89.125 53.8125 C88.53025879 54.2863916 87.93551758 54.7602832 87.32275391 55.24853516 C83.58249675 58.10789411 80.14045422 59.75942883 75.6875 61.375 C72.88033594 62.50698359 72.88033594 62.50698359 71 65 C69.32341023 71.906023 69.86926203 78.94014979 70 86 C61.09 86 52.18 86 43 86 C43 79.07 43 72.14 43 65 C41.02 64.34 39.04 63.68 37 63 C25.08655 56.63793572 15.58230463 47.29243176 7 37 C6.30132812 36.28585938 5.60265625 35.57171875 4.8828125 34.8359375 C-3.16757478 25.16900659 -0.41741089 11.74713498 0 0 Z " fill="#6A71B2" transform="translate(44,86)"/>
<path d="M0 0 C1 1 1 1 1.11352539 4.78540039 C1.11336622 6.47282729 1.10766917 8.16025905 1.09765625 9.84765625 C1.0962413 10.7340831 1.09482635 11.62050995 1.09336853 12.53379822 C1.08775215 15.37673254 1.07519691 18.21958931 1.0625 21.0625 C1.05748711 22.98502491 1.05292384 24.90755104 1.04882812 26.83007812 C1.03862648 31.55343964 1.01905437 36.27663258 1 41 C-8.57 41 -18.14 41 -28 41 C-26.14329402 24.28964614 -20.26996573 13.97826633 -8.74609375 2.01953125 C-5.51954358 -0.35333708 -3.91715471 -0.52266196 0 0 Z " fill="#D94A69" transform="translate(71,32)"/>
<path d="M0 0 C4.13962205 0.59382165 6.32762703 3.03117962 9.14453125 5.90625 C9.71268555 6.47923828 10.28083984 7.05222656 10.86621094 7.64257812 C19.81493178 17.14519481 24.83203125 28.36671191 24.83203125 41.40625 C15.26203125 41.40625 5.69203125 41.40625 -4.16796875 41.40625 C-4.23912562 30.80387564 -4.26973584 20.24614595 -3.73046875 9.65625 C-3.69123291 8.84115967 -3.65199707 8.02606934 -3.61157227 7.1862793 C-3.24202658 0.60751489 -3.24202658 0.60751489 0 0 Z " fill="#DC4A6A" transform="translate(133.16796875,31.59375)"/>
<path d="M0 0 C0.33 0 0.66 0 1 0 C1 11.22 1 22.44 1 34 C9.91 33.67 18.82 33.34 28 33 C28 33.99 28 34.98 28 36 C18.43 36 8.86 36 -1 36 C-1.07891121 23.92658469 -1.03474002 12.02885275 0 0 Z " fill="#AD4A60" transform="translate(130,37)"/>
<path d="M0 0 C0.33 0 0.66 0 1 0 C1 2.97 1 5.94 1 9 C-8.57 9 -18.14 9 -28 9 C-27.67 6.69 -27.34 4.38 -27 2 C-26.67 2 -26.34 2 -26 2 C-26 3.65 -26 5.3 -26 7 C-17.42 7 -8.84 7 0 7 C0 4.69 0 2.38 0 0 Z " fill="#AB4A5F" transform="translate(71,64)"/>
<path d="M0 0 C0.33 0.66 0.66 1.32 1 2 C-0.28946305 3.79325326 -1.58164352 5.58455278 -2.875 7.375 C-3.59429687 8.37273437 -4.31359375 9.37046875 -5.0546875 10.3984375 C-7 13 -7 13 -9 15 C-9.99 14.67 -10.98 14.34 -12 14 C-11.30132812 13.24074219 -10.60265625 12.48148438 -9.8828125 11.69921875 C-8.96343578 10.69540947 -8.04417079 9.69149785 -7.125 8.6875 C-6.66480469 8.18798828 -6.20460937 7.68847656 -5.73046875 7.17382812 C-3.61393392 4.85790957 -1.74473617 2.61710426 0 0 Z " fill="#0E1024" transform="translate(153,117)"/>
<path d="M0 0 C0.66 0.99 1.32 1.98 2 3 C1.01 4.98 0.02 6.96 -1 9 C-1.66 9 -2.32 9 -3 9 C-2.44271087 5.65626525 -1.64826111 2.96687001 0 0 Z " fill="#B74660" transform="translate(49,50)"/>
<path d="M0 0 C0.99 0.33 1.98 0.66 3 1 C1.515 4.465 1.515 4.465 0 8 C-0.98120464 4.94736336 -0.98120464 3.05263664 0 0 Z " fill="#5B6391" transform="translate(129,88)"/>
<path d="M0 0 C1.65 0 3.3 0 5 0 C5.33 0.66 5.66 1.32 6 2 C5.401875 2.12375 4.80375 2.2475 4.1875 2.375 C1.73768652 2.95475985 1.73768652 2.95475985 -1 5 C-0.67 3.35 -0.34 1.7 0 0 Z " fill="#C45068" transform="translate(131,32)"/>
</svg>
