<?xml version="1.0" encoding="UTF-8"?>
<svg version="1.1" xmlns="http://www.w3.org/2000/svg" width="200" height="200">
<path d="M0 0 C0.96511725 0.00092179 1.93023451 0.00184359 2.92459774 0.00279331 C4.02822659 0.00141865 5.13185543 0.00004398 6.26892757 -0.00137234 C7.49027905 0.00222294 8.71163052 0.00581821 9.96999264 0.00952244 C11.88678829 0.0093034 11.88678829 0.0093034 13.84230709 0.00907993 C17.35661253 0.00879197 20.87088412 0.01468843 24.38518167 0.02165389 C28.05407018 0.02788771 31.72295939 0.02849125 35.39185238 0.0296793 C42.34398097 0.03279253 49.29609392 0.04100581 56.24821562 0.05102879 C65.63939924 0.06427549 75.03058712 0.0696899 84.42177773 0.07553101 C99.22488909 0.08494571 114.02796742 0.10486467 128.83107662 0.12304783 C128.83107662 33.12304783 128.83107662 66.12304783 128.83107662 100.12304783 C127.51107662 100.45304783 126.19107662 100.78304783 124.83107662 101.12304783 C122.42873287 99.35742283 122.42873287 99.35742283 119.89357662 96.87304783 C116.70119912 93.77441866 113.73566275 91.27441192 109.83107662 89.12304783 C99.3081778 99.40824293 99.3081778 99.40824293 89.43263912 110.30273533 C86.77918785 113.31860921 83.87707788 116.08442497 81.01857662 118.90429783 C79.03387321 120.91735415 77.17010746 122.97751185 75.33107662 125.12304783 C72.07943034 128.91663516 68.57394568 132.3969743 65.01857662 135.90429783 C63.03387321 137.91735415 61.17010746 139.97751185 59.33107662 142.12304783 C56.08662904 145.90823667 52.58975901 149.38154882 49.04201412 152.88086033 C46.34541272 155.61557624 43.82859502 158.4737871 41.33888912 161.39648533 C40.841311 161.96625095 40.34373287 162.53601658 39.83107662 163.12304783 C39.41234783 163.6466338 38.99361904 164.17021976 38.5622015 164.70967197 C36.18741674 166.64856355 34.6674295 166.48530212 31.62526608 166.463624 C30.56439281 166.46339741 29.50351955 166.46317081 28.41049862 166.46293736 C26.69475895 166.43971157 26.69475895 166.43971157 24.94435787 166.41601658 C23.77221233 166.41177174 22.6000668 166.40752689 21.3924017 166.40315342 C17.64256128 166.38633855 13.89325505 166.34868015 10.14357662 166.31054783 C7.60387083 166.29550467 5.06415663 166.28181563 2.524436 166.2695322 C-3.70686656 166.23642579 -9.93785681 166.18619811 -16.16892338 166.12304783 C-16.82892338 164.80304783 -17.48892338 163.48304783 -18.16892338 162.12304783 C-17.66030766 161.61966892 -17.15169193 161.11629002 -16.62766361 160.5976572 C-14.2845161 158.27552804 -11.94545736 155.94932013 -9.60642338 153.62304783 C-8.8065601 152.83156345 -8.00669682 152.04007908 -7.18259525 151.22461033 C-3.59367002 147.65033377 -0.06710684 144.07529553 3.22560787 140.22461033 C7.83510883 134.85990307 12.9235683 129.96045156 17.95607662 124.99804783 C19.89919912 123.08179762 21.83877759 121.16205603 23.77638912 119.24023533 C24.6273315 118.40089451 25.47827389 117.56155369 26.3550024 116.6967783 C28.98387579 113.96422227 31.40361777 111.03599845 33.83107662 108.12304783 C16.67107662 107.79304783 -0.48892338 107.46304783 -18.16892338 107.12304783 C-18.66392338 104.64804783 -18.66392338 104.64804783 -19.16892338 102.12304783 C-17.85642338 100.31054783 -17.85642338 100.31054783 -16.16892338 99.12304783 C-15.50892338 99.12304783 -14.84892338 99.12304783 -14.16892338 99.12304783 C-13.94204838 98.54554783 -13.71517338 97.96804783 -13.48142338 97.37304783 C-11.82491825 94.53332475 -9.7432435 93.17080247 -7.16892338 91.12304783 C-5.61329353 89.411855 -4.13669251 87.64700369 -2.65329838 85.87304783 C-0.60704832 83.46062671 1.49793715 81.26175901 3.83107662 79.12304783 C4.49107662 79.12304783 5.15107662 79.12304783 5.83107662 79.12304783 C6.32607662 77.63804783 6.32607662 77.63804783 6.83107662 76.12304783 C9.36181875 73.37538495 11.99904206 70.98593318 14.89357662 68.62304783 C17.81677649 66.30077808 17.81677649 66.30077808 19.70607662 63.74804783 C21.52128716 61.50572893 23.19132009 59.88742484 25.37404537 58.04101658 C30.2233111 53.84373452 34.74640952 49.35493688 39.26857662 44.81054783 C40.08261959 44.00037205 40.89666256 43.19019627 41.7353735 42.3554697 C42.50816647 41.58138767 43.28095943 40.80730564 44.07717037 40.00976658 C45.12409054 38.96115452 45.12409054 38.96115452 46.19216061 37.89135838 C47.90470341 36.20912615 47.90470341 36.20912615 48.83107662 34.12304783 C48.23681881 34.12941257 47.642561 34.13577732 47.03029537 34.14233494 C42.34376378 34.15736755 37.67320883 34.06242976 32.99513912 33.77148533 C32.11809322 33.71911716 31.24104733 33.666749 30.33742428 33.61279392 C25.42782658 32.65344725 22.85830052 29.87653396 19.83107662 26.12304783 C18.01930742 24.43296462 16.18416263 22.76772443 14.33107662 21.12304783 C13.40166256 20.27613377 12.4722485 19.4292197 11.51467037 18.55664158 C5.30264673 12.79148155 5.30264673 12.79148155 -1.37204838 7.59570408 C-3.16892338 6.12304783 -3.16892338 6.12304783 -3.48142338 3.49804783 C-3.04387574 0.17268581 -3.04387574 0.17268581 0 0 Z M90.0893774 45.37304783 C89.3156982 46.23929783 89.3156982 46.23929783 88.52638912 47.12304783 C87.94598873 47.75944187 87.36558834 48.39583591 86.76760006 49.05151463 C86.16979733 49.73512058 85.57199459 50.41872654 84.95607662 51.12304783 C84.33764889 51.80987644 83.71922115 52.49670506 83.08205318 53.20434666 C81.8643129 54.56058324 80.65252142 55.92218916 79.44728756 57.28955173 C78.12293161 58.79195554 76.78029304 60.27822522 75.43263912 61.75976658 C72.6069342 64.88950304 70.74838534 67.2884304 68.83107662 71.12304783 C78.40107662 71.12304783 87.97107662 71.12304783 97.83107662 71.12304783 C97.50107662 62.21304783 97.17107662 53.30304783 96.83107662 44.12304783 C92.1507907 43.63715779 92.1507907 43.63715779 90.0893774 45.37304783 Z " fill="#050500" transform="translate(47.16892337799072,20.876952171325684)"/>
<path d="M0 0 C33 0 66 0 100 0 C100 24.09 100 48.18 100 73 C97.36 71.02 94.72 69.04 92 67 C91.18305664 66.40026367 90.36611328 65.80052734 89.52441406 65.18261719 C87.08639356 61.69192159 87.50644014 58.22855914 87.609375 54.078125 C87.61503479 53.21813904 87.62069458 52.35815308 87.62652588 51.47210693 C87.64888049 48.73083351 87.69907398 45.99087696 87.75 43.25 C87.77006624 41.38934182 87.78831679 39.52866311 87.8046875 37.66796875 C87.84874216 33.11147334 87.91776246 28.55595978 88 24 C80.2397117 22.6697788 72.9288076 22.4220381 66.12585449 26.88592529 C59.15806452 32.61900068 53.01729956 39.20497541 46.89337158 45.81237793 C44.34978424 48.53479448 41.75007765 51.20252788 39.15625 53.87695312 C30.12408346 62.28275619 30.12408346 62.28275619 23 72 C41.81 72 60.62 72 80 72 C80 74 80 74 78.06201172 76.06518555 C77.04253087 77.04469681 76.02166597 78.02276811 75 79 C73.62132793 80.36830238 72.24545458 81.73942745 70.87158203 83.11254883 C69.70479416 84.27449516 69.70479416 84.27449516 68.51443481 85.45991516 C64.98029732 88.98064964 61.44881655 92.50404382 57.91748047 96.02758789 C56.06030736 97.87972757 54.20223836 99.73096935 52.34326172 101.58129883 C49.64571307 104.26664895 46.95146792 106.95527656 44.2578125 109.64453125 C43.4346756 110.46250687 42.6115387 111.28048248 41.76345825 112.12324524 C35.6082582 118.27785241 29.79147178 124.601397 24.4765625 131.5 C18.67285467 138.48612708 13.78732731 144.19708795 4.33203125 145.09765625 C-1.82152943 145.24033743 -7.90158198 144.81238721 -14 144 C-9.83519337 139.03436079 -5.50293369 134.35518777 -0.9140625 129.78125 C-0.25344818 129.11967896 0.40716614 128.45810791 1.08779907 127.77648926 C2.47657561 126.38703655 3.86659838 124.99882844 5.2578125 123.61181641 C7.36572929 121.50924719 9.468265 119.40140396 11.5703125 117.29296875 C12.9293671 115.9345752 14.288732 114.57649202 15.6484375 113.21875 C16.57539932 112.28875183 16.57539932 112.28875183 17.52108765 111.33996582 C21.28073517 107.60004786 25.15562647 104.04842193 29.179245 100.59370422 C32.05274352 98.07853512 34.74865944 95.3971038 37.4375 92.6875 C37.96537109 92.16349609 38.49324219 91.63949219 39.03710938 91.09960938 C41.86976913 88.31556864 41.86976913 88.31556864 44 85 C24.86 85 5.72 85 -14 85 C-9.98618009 80.3172101 -6.00588684 75.8677377 -1.64331055 71.5456543 C-1.03931931 70.94312332 -0.43532806 70.34059235 0.18696594 69.71980286 C1.48551095 68.42503485 2.78520884 67.13142223 4.0859623 65.83887291 C6.14322488 63.79446218 8.19726964 61.74686625 10.25053406 59.69844055 C14.60171269 55.35863557 18.95682844 51.02279499 23.3125 46.6875 C28.37863052 41.64496581 33.44313679 36.60082229 38.50346947 31.55246925 C40.52952618 29.5329057 42.55856377 27.51636952 44.58772278 25.49992371 C45.82205625 24.26922057 47.05625077 23.03837805 48.2902832 21.80737305 C48.85700745 21.24581512 49.42373169 20.6842572 50.00762939 20.10568237 C52.85755055 17.32118886 52.85755055 17.32118886 55 14 C55.66 14 56.32 14 57 14 C57 13.34 57 12.68 57 12 C55.15607666 12.08640747 55.15607666 12.08640747 53.27490234 12.17456055 C48.65000908 12.37586505 44.02548841 12.50070855 39.39746094 12.60424805 C37.40688681 12.65907727 35.41674537 12.73377754 33.42773438 12.82983398 C21.44888808 13.3932254 13.1050113 13.13208758 3.8387146 4.96598816 C2.50550223 3.69810739 1.24404657 2.35547962 0 1 C0 0.67 0 0.34 0 0 Z " fill="#FBFB0A" transform="translate(66,31)"/>
<path d="M0 0 C0.495 1.485 0.495 1.485 1 3 C-0.08862305 4.69140625 -0.08862305 4.69140625 -1.82421875 6.5625 C-2.47310059 7.26632813 -3.12198242 7.97015625 -3.79052734 8.6953125 C-7.76020568 12.83605985 -11.75785976 16.9422432 -15.8125 21 C-16.67037109 21.87011719 -17.52824219 22.74023438 -18.41210938 23.63671875 C-19.23130859 24.45785156 -20.05050781 25.27898437 -20.89453125 26.125 C-22.00598511 27.24261719 -22.00598511 27.24261719 -23.13989258 28.3828125 C-25 30 -25 30 -27 30 C-27.33 30.99 -27.66 31.98 -28 33 C-10.84 33.33 6.32 33.66 24 34 C24 34.33 24 34.66 24 35 C4.86 35 -14.28 35 -34 35 C-27.25 27.125 -27.25 27.125 -24.74853516 24.63500977 C-24.18840729 24.07495743 -23.62827942 23.51490509 -23.05117798 22.93788147 C-22.46967987 22.36154465 -21.88818176 21.78520782 -21.2890625 21.19140625 C-20.36956314 20.27402931 -20.36956314 20.27402931 -19.43148804 19.33811951 C-17.49835436 17.41052441 -15.56175013 15.48646072 -13.625 13.5625 C-12.30315301 12.24567596 -10.98153628 10.92862074 -9.66015625 9.61132812 C-6.44275701 6.40487627 -3.22224319 3.20158371 0 0 Z " fill="#F7F724" transform="translate(86,81)"/>
<path d="M0 0 C2.962308 1.04552047 5.0805591 2.06431797 7.55517578 4.04003906 C12.14736636 6.65280348 15.7977277 6.60235865 20.9921875 6.609375 C21.93812775 6.62591125 22.88406799 6.64244751 23.8586731 6.65948486 C26.86418212 6.70786315 29.86918552 6.72931338 32.875 6.75 C34.91929613 6.77816816 36.96356881 6.80809677 39.0078125 6.83984375 C44.0051667 6.91361956 49.00224187 6.96325644 54 7 C54 7.66 54 8.32 54 9 C47.91702018 9.19901532 41.83596831 9.34351303 35.75048828 9.43945312 C33.68439696 9.47947739 31.61852925 9.53391699 29.55322266 9.60351562 C10.17787342 10.2396932 10.17787342 10.2396932 3.5859375 5.03125 C0 1.43334075 0 1.43334075 0 0 Z " fill="#F3F231" transform="translate(70,34)"/>
<path d="M0 0 C0 0.99 0 1.98 0 3 C-0.66 3.66 -1.32 4.32 -2 5 C4.96779403 6.32719886 11.92988911 6.08825381 19 6 C18.67 6.66 18.34 7.32 18 8 C9.75 8 1.5 8 -7 8 C-1 1 -1 1 0 0 Z " fill="#F4F337" transform="translate(59,167)"/>
<path d="M0 0 C0.33 0.99 0.66 1.98 1 3 C-2.63 6.63 -6.26 10.26 -10 14 C-10.99 13.67 -11.98 13.34 -13 13 C-8.71 8.71 -4.42 4.42 0 0 Z " fill="#F9FA21" transform="translate(120,47)"/>
<path d="M0 0 C0.33 0.99 0.66 1.98 1 3 C-2.96570677 7.38808974 -6.01191871 10.68554313 -12 12 C-8.39424999 7.41086363 -4.52615993 3.67832017 0 0 Z " fill="#E8E720" transform="translate(96,131)"/>
<path d="M0 0 C0 3.58912412 -0.66436554 4.10857029 -3 6.6875 C-3.556875 7.31011719 -4.11375 7.93273437 -4.6875 8.57421875 C-5.120625 9.04472656 -5.55375 9.51523438 -6 10 C-6.99 9.67 -7.98 9.34 -9 9 C-6.03 6.03 -3.06 3.06 0 0 Z " fill="#F8F928" transform="translate(106,61)"/>
</svg>
