<?xml version="1.0" encoding="UTF-8"?>
<svg version="1.1" xmlns="http://www.w3.org/2000/svg" width="128" height="128">
<path d="M0 0 C4.41405588 3.46144981 7.58861003 7.26601849 9.015625 12.74609375 C9.78899431 20.02533271 10.31799715 27.66830787 6.34375 34.10546875 C1.67369888 39.87435543 -4.01183294 44.13397231 -11.5546875 45.0625 C-19.13381632 45.38973258 -24.99546162 43.88134863 -30.9921875 39.16796875 C-37.08181278 33.51149673 -39.11884385 28.51884401 -39.421875 20.30859375 C-39.18878508 12.16909358 -37.11828431 7.5047756 -31.234375 1.93359375 C-21.83070413 -5.69382818 -10.35211636 -6.54139636 0 0 Z " fill="#886397" transform="translate(97.984375,63.25390625)"/>
<path d="M0 0 C5.66787009 3.38146814 10.20723933 8.66365619 13.1875 14.5 C14.53225391 22.73661772 14.10111991 29.3166875 9.6875 36.5625 C5.27363268 41.78944815 -0.12103217 46.15099544 -7.09765625 46.8359375 C-14.94298421 47.07905851 -20.92499477 46.36756722 -27.3125 41.5625 C-32.54129728 36.17064252 -35.57773519 30.46478499 -35.75 22.875 C-35.59859644 15.63434717 -33.6405188 9.79658278 -28.375 4.6796875 C-20.2961643 -1.65485413 -9.82396233 -4.26874554 0 0 Z " fill="#9A6D95" transform="translate(57.3125,21.4375)"/>
<path d="M0 0 C2.05859375 0.69921875 2.05859375 0.69921875 4.62109375 2.76171875 C6.47202865 6.54406399 7.05157878 9.56873479 6.05859375 13.69921875 C3.13670743 17.31313077 0.94233901 19.4423444 -3.69140625 20.07421875 C-7.14027831 19.67627197 -9.22241402 18.83717452 -11.79296875 16.45703125 C-13.76485988 13.43883054 -13.75268517 10.61023206 -13.515625 7.0859375 C-12.90498259 4.54782519 -12.33755957 3.34537207 -10.50390625 1.51171875 C-6.48844911 -0.53123313 -4.35323338 -0.80017275 0 0 Z " fill="#5A2B6B" transform="translate(86.94140625,74.30078125)"/>
<path d="M0 0 C5.57894737 3.15789474 5.57894737 3.15789474 7 6 C7.36524972 10.45604661 7.53894975 12.94455674 5.5 16.9375 C2.14436525 19.70589867 -0.68446902 20.31744462 -5 20 C-7.97160035 18.64339984 -9.70283441 17.29716559 -12 15 C-12.77200992 10.43077852 -12.59362988 6.94980781 -10.125 3 C-6.74313436 -0.18293237 -4.606026 -0.44288712 0 0 Z " fill="#5A2B6B" transform="translate(49,34)"/>
</svg>
