<?xml version="1.0" encoding="UTF-8"?>
<svg version="1.1" xmlns="http://www.w3.org/2000/svg" width="200" height="200">
<path d="M0 0 C0.75 2.125 0.75 2.125 1 5 C-1.5570265 9.73335427 -5.13381115 13.50095689 -8.8125 17.375 C-9.88478433 18.5215094 -10.95640211 19.66864257 -12.02734375 20.81640625 C-12.54022949 21.36441895 -13.05311523 21.91243164 -13.58154297 22.47705078 C-18.77238187 28.0502785 -23.52571374 33.83761307 -28 40 C-27.40832031 40.38671875 -26.81664063 40.7734375 -26.20703125 41.171875 C-23.79222559 42.76336193 -21.39444956 44.37808399 -19 46 C-18.113125 46.598125 -17.22625 47.19625 -16.3125 47.8125 C-6.30367458 57.28030783 -3.1935989 70.61567096 -2.6875 83.9375 C-2.83697475 98.35350892 -7.26315373 111.0588194 -17.125 121.6875 C-28.95164114 132.9178399 -41.72787487 136.54481137 -57.65722656 136.44604492 C-59.73344379 136.4375676 -61.80686748 136.46633241 -63.8828125 136.49804688 C-81.12963506 136.58853133 -97.20613377 131.29868577 -109.90478516 119.3762207 C-114.52224759 114.77186292 -117.52592346 109.9967683 -120 104 C-120.40992188 103.01515625 -120.81984375 102.0303125 -121.2421875 101.015625 C-127.69486589 83.12613044 -123.60927884 64.26279753 -115.75 47.5 C-112.24935977 40.98470863 -107.98009334 35.44697709 -103 30 C-102.34 29.27039062 -101.68 28.54078125 -101 27.7890625 C-91.91974098 18.23282217 -80.82790299 12.44270339 -69 7 C-68.06148193 6.5680835 -68.06148193 6.5680835 -67.10400391 6.12744141 C-45.8548804 -3.44795548 -22.64427577 -6.49187428 0 0 Z " fill="#050100" transform="translate(154,34)"/>
<path d="M0 0 C1.01320313 0.00451172 2.02640625 0.00902344 3.0703125 0.01367188 C5.54693827 0.02535407 8.02343657 0.04173418 10.5 0.0625 C6.79220755 4.46728887 2.97917089 8.70617784 -1.00708008 12.85961914 C-12.99160605 24.8244023 -12.99160605 24.8244023 -19.5 40.0625 C-18.675 39.98 -17.85 39.8975 -17 39.8125 C-9.96905097 40.31471064 -4.77529629 44.02485498 -0.03515625 49.078125 C7.3118935 58.57507481 8.31370324 70.49539545 7.5 82.0625 C5.47242006 94.79037406 -0.4191441 101.2935819 -9.5 110.0625 C-10.57608461 106.83424617 -10.43795097 106.1323247 -9.578125 103 C-8.36933075 97.96946232 -8.20240827 93.21827043 -8.25 88.0625 C-8.24226563 87.22460938 -8.23453125 86.38671875 -8.2265625 85.5234375 C-8.24932387 78.17151503 -8.52291035 70.04922162 -13.81640625 64.41015625 C-22.7301638 57.2750139 -32.49834232 56.4961341 -43.5 57.0625 C-51.7604983 58.168929 -58.02750236 60.68401733 -63.30859375 67.31640625 C-64.91828521 69.67552783 -65.36658733 71.19412754 -65.5 74.0625 C-65.54898438 74.805 -65.59796875 75.5475 -65.6484375 76.3125 C-65.89979106 82.65434367 -65.47478287 88.61385791 -61.17578125 93.59765625 C-56.8400917 97.50091482 -52.65947596 98.91095783 -46.9375 99.3125 C-43.604464 99.07009738 -41.42279652 98.64916097 -38.5 97.0625 C-36.5549 94.14485 -36.04723683 92.43712715 -35.5 89.0625 C-36.33144531 89.09730469 -37.16289063 89.13210937 -38.01953125 89.16796875 C-39.64955078 89.20857422 -39.64955078 89.20857422 -41.3125 89.25 C-42.39144531 89.28480469 -43.47039062 89.31960937 -44.58203125 89.35546875 C-47.5 89.0625 -47.5 89.0625 -49.38671875 87.82421875 C-51.22124618 84.92115955 -50.62834264 82.57292003 -50.15234375 79.2890625 C-49.15980891 75.90136874 -47.23051529 74.19363389 -44.5 72.0625 C-39.91867248 69.77183624 -34.46947978 70.77165606 -29.75 72.1875 C-26.13701831 74.27191252 -23.5800004 76.45874397 -21.5 80.0625 C-21.07310499 83.06270618 -20.92562911 85.40580553 -21.0625 88.375 C-21.07990234 89.14956543 -21.09730469 89.92413086 -21.11523438 90.72216797 C-21.37287096 98.88891727 -22.3539981 106.97909375 -23.5 115.0625 C-37.58300055 119.89432446 -50.01448752 118.76336929 -63.5234375 112.70703125 C-75.0977711 106.79302244 -80.93879734 99.01342036 -85.31640625 86.78125 C-89.20311599 72.21288341 -85.9891145 56.40098591 -79.3125 43.1875 C-75.76526632 37.06871098 -71.52750458 32.01331383 -66.5 27.0625 C-65.80132812 26.36511719 -65.10265625 25.66773437 -64.3828125 24.94921875 C-47.0102174 8.56297979 -23.58436542 -0.20117897 0 0 Z " fill="#F94804" transform="translate(129.5,41.9375)"/>
<path d="M0 0 C6.00279884 5.09972291 7.5544095 10.71450397 8.203125 18.40942383 C8.30276397 20.88121755 8.32929203 23.33879425 8.3125 25.8125 C8.30404053 27.11864258 8.30404053 27.11864258 8.29541016 28.45117188 C7.98358811 45.08579766 7.98358811 45.08579766 2.3125 50.625 C-0.26234049 51.69380171 -2.52414729 52.43939286 -5.20703125 53.0859375 C-6.45871094 53.38757813 -7.71039063 53.68921875 -9 54 C-8.855625 52.90945312 -8.71125 51.81890625 -8.5625 50.6953125 C-7.5375568 42.56488465 -6.74726095 34.44620093 -6.5625 26.25 C-6.52833984 25.51281738 -6.49417969 24.77563477 -6.45898438 24.01611328 C-6.42659137 20.0992587 -6.93796612 17.58700205 -9.35546875 14.5703125 C-13.422214 10.61770043 -17.05327584 9.91590896 -22.5625 9.6875 C-26.47544228 9.79289912 -28.97543963 10.34205301 -32 13 C-34.07194731 16.65057384 -34.36945344 19.84364876 -34 24 C-31.31907309 26.68092691 -29.60832637 26.38670257 -25.875 26.625 C-24.77929688 26.69976562 -23.68359375 26.77453125 -22.5546875 26.8515625 C-21.71164063 26.90054688 -20.86859375 26.94953125 -20 27 C-19.83662531 30.47754698 -19.82164173 31.71972272 -21.75 34.75 C-24.99838869 37.99838869 -26.76834113 37.90525701 -31.25 38.25 C-37.50942211 37.83270519 -42.08039257 36.41052326 -46.375 31.6875 C-51.09729687 25.52798234 -51.55674532 19.54699212 -51 12 C-49.93367076 6.07594867 -46.34693384 1.98542413 -42 -2 C-30.33089909 -9.52180456 -11.23072688 -7.42527397 0 0 Z " fill="#561700" transform="translate(114,104)"/>
<path d="M0 0 C7.39842777 0.36992139 11.69804936 4.73432652 16.7265625 9.68359375 C20.78391706 15.54964854 19.50978388 23.61445553 19.3125 30.4375 C19.28738916 31.94722875 19.26458088 33.45699766 19.24414062 34.96679688 C19.18935733 38.64537284 19.10324012 42.32242808 19 46 C20.485 46.495 20.485 46.495 22 47 C19.69 48.98 17.38 50.96 15 53 C15.144375 52.36578125 15.28875 51.7315625 15.4375 51.078125 C16.78584423 44.29894985 17.2192949 37.70323585 17.25 30.8125 C17.25902344 29.98202148 17.26804687 29.15154297 17.27734375 28.29589844 C17.24254558 20.97958343 16.91973322 12.98946977 11.70703125 7.3515625 C8.19053992 4.56733824 4.08628924 2.79320654 0 1 C0 0.67 0 0.34 0 0 Z " fill="#E14C11" transform="translate(104,99)"/>
<path d="M0 0 C0.33 0.99 0.66 1.98 1 3 C0.01 4.485 0.01 4.485 -1 6 C-1.66 6 -2.32 6 -3 6 C-3 7.32 -3 8.64 -3 10 C-3.99 10.495 -3.99 10.495 -5 11 C-5.78015621 12.82510997 -6.47795406 14.68606676 -7.125 16.5625 C-7.47820313 17.57441406 -7.83140625 18.58632812 -8.1953125 19.62890625 C-8.46085937 20.41136719 -8.72640625 21.19382812 -9 22 C-9.66 22 -10.32 22 -11 22 C-10.938125 23.794375 -10.938125 23.794375 -10.875 25.625 C-10.87021031 28.37428107 -11.03759309 30.11027308 -11.9375 32.75 C-13.56218994 37.71963981 -13.68047832 42.80356852 -14 48 C-14.33 48 -14.66 48 -15 48 C-16.01318061 29.98790035 -11.71836268 14.05689558 0 0 Z " fill="#CC4813" transform="translate(58,74)"/>
<path d="M0 0 C0 4.96471459 -2.22691743 8.13560846 -5.48046875 11.7734375 C-6.37378906 12.63195312 -7.26710938 13.49046875 -8.1875 14.375 C-9.53908203 15.68597656 -9.53908203 15.68597656 -10.91796875 17.0234375 C-11.60503906 17.67570312 -12.29210937 18.32796875 -13 19 C-13.99 18.67 -14.98 18.34 -16 18 C-15.18015625 17.11957031 -14.3603125 16.23914063 -13.515625 15.33203125 C-12.42699378 14.15893726 -11.33845712 12.98575552 -10.25 11.8125 C-9.71117188 11.23435547 -9.17234375 10.65621094 -8.6171875 10.06054688 C-5.60201909 6.80637122 -2.72218201 3.50844332 0 0 Z " fill="#260600" transform="translate(130,52)"/>
<path d="M0 0 C1.01320312 0.00451172 2.02640625 0.00902344 3.0703125 0.01367188 C5.54693827 0.02535407 8.02343657 0.04173418 10.5 0.0625 C9.56725891 1.19144876 8.62859878 2.31550876 7.6875 3.4375 C7.16542969 4.06398438 6.64335937 4.69046875 6.10546875 5.3359375 C4.5 7.0625 4.5 7.0625 1.5 9.0625 C1.83 8.464375 2.16 7.86625 2.5 7.25 C3.70787988 5.00863529 3.70787988 5.00863529 3.5 2.0625 C-4.09 2.0625 -11.68 2.0625 -19.5 2.0625 C-19.5 1.7325 -19.5 1.4025 -19.5 1.0625 C-12.96313616 0.07418844 -6.60422885 -0.05633529 0 0 Z " fill="#D34F1B" transform="translate(129.5,41.9375)"/>
<path d="M0 0 C0.33 0 0.66 0 1 0 C1.10477512 5.78591511 0.99250545 11.29309366 0 17 C-4.50353262 18.75747614 -8.17639811 19.19294408 -13 19 C-12.67 18.34 -12.34 17.68 -12 17 C-9.96875 16.62109375 -9.96875 16.62109375 -7.5 16.4375 C-4.45018475 16.4207737 -4.45018475 16.4207737 -2 15 C-1.60056824 12.47804033 -1.24920152 9.97036344 -0.9375 7.4375 C-0.84662109 6.72658203 -0.75574219 6.01566406 -0.66210938 5.28320312 C-0.43760497 3.52261597 -0.21831603 1.76136522 0 0 Z " fill="#DF4D14" transform="translate(106,140)"/>
<path d="M0 0 C0.66 0.33 1.32 0.66 2 1 C-1.45663464 5.39935317 -5.16729426 10.0568593 -10 13 C-10.99 12.67 -11.98 12.34 -13 12 C-11.3989569 10.3719224 -9.79405264 8.74764115 -8.1875 7.125 C-7.29417969 6.22007813 -6.40085937 5.31515625 -5.48046875 4.3828125 C-3 2 -3 2 0 0 Z " fill="#E14E12" transform="translate(72,61)"/>
<path d="M0 0 C0.625 1.8125 0.625 1.8125 1 4 C0.01 5.485 0.01 5.485 -1 7 C-1.30066154 9.75417318 -1.50925299 12.42645147 -1.625 15.1875 C-1.66367188 15.93708984 -1.70234375 16.68667969 -1.7421875 17.45898438 C-1.83628216 19.30559199 -1.91922319 21.1527619 -2 23 C-5.16865294 17.54287549 -4.64340495 11.52766231 -3.125 5.5625 C-2 3 -2 3 0 0 Z " fill="#711700" transform="translate(67,107)"/>
<path d="M0 0 C1.32 0.33 2.64 0.66 4 1 C3.36578125 1.66386719 2.7315625 2.32773438 2.078125 3.01171875 C-0.38877821 6.55905138 -0.86526659 9.62451654 -1.25 13.8125 C-1.32734375 14.50537109 -1.4046875 15.19824219 -1.484375 15.91210938 C-1.67133957 17.60647581 -1.83777927 19.3030858 -2 21 C-2.66 20.67 -3.32 20.34 -4 20 C-4 16.7 -4 13.4 -4 10 C-3.34 10 -2.68 10 -2 10 C-2.04125 9.278125 -2.0825 8.55625 -2.125 7.8125 C-1.99078695 4.79270631 -1.24829381 2.73064271 0 0 Z " fill="#EC4F12" transform="translate(65,105)"/>
<path d="M0 0 C0 0.33 0 0.66 0 1 C-3.3 1 -6.6 1 -10 1 C-10 1.66 -10 2.32 -10 3 C-14.62 3.33 -19.24 3.66 -24 4 C-16.8350205 -0.776653 -8.32645748 -0.25359769 0 0 Z " fill="#7C1D01" transform="translate(98,98)"/>
<path d="M0 0 C0.33 0 0.66 0 1 0 C1.13962054 3.4905134 1.22099428 6.36648307 0.0625 9.6875 C-1.54127084 14.68749143 -1.67904563 19.78026838 -2 25 C-2.33 25 -2.66 25 -3 25 C-3.46278755 6.9255751 -3.46278755 6.9255751 0 0 Z " fill="#AF3F16" transform="translate(46,97)"/>
<path d="M0 0 C3.3 0 6.6 0 10 0 C10 5 10 5 8.5 6.8125 C8.005 7.204375 7.51 7.59625 7 8 C7 6.35 7 4.7 7 3 C4.69 2.67 2.38 2.34 0 2 C0 1.34 0 0.68 0 0 Z " fill="#7E1C00" transform="translate(84,131)"/>
<path d="M0 0 C0.33 0 0.66 0 1 0 C1.8985997 3.36974887 2.14852081 6.65441178 2.25 10.125 C2.27578125 10.97320312 2.3015625 11.82140625 2.328125 12.6953125 C2 15 2 15 -1 18 C-0.505 9.09 -0.505 9.09 0 0 Z " fill="#210300" transform="translate(137,110)"/>
<path d="M0 0 C0.66 1.32 1.32 2.64 2 4 C2.99 4.66 3.98 5.32 5 6 C2.69 7.98 0.38 9.96 -2 12 C-1.34 8.04 -0.68 4.08 0 0 Z " fill="#CD4C16" transform="translate(121,140)"/>
<path d="M0 0 C1.32 0 2.64 0 4 0 C3.65120368 3.25543229 2.97866739 4.01873107 0.4375 6.25 C-0.366875 6.8275 -1.17125 7.405 -2 8 C-1.67 7.401875 -1.34 6.80375 -1 6.1875 C0.20787988 3.94613529 0.20787988 3.94613529 0 1 C0 0.67 0 0.34 0 0 Z " fill="#E94F12" transform="translate(133,43)"/>
<path d="M0 0 C4.05606165 0.46800711 7.46588679 0.87953208 11 3 C3.57142857 3.14285714 3.57142857 3.14285714 0 2 C0 1.34 0 0.68 0 0 Z " fill="#7D1E02" transform="translate(75,139)"/>
<path d="M0 0 C1.32 0.33 2.64 0.66 4 1 C3.360625 1.721875 2.72125 2.44375 2.0625 3.1875 C0.01326465 5.98191184 -0.61332946 7.61663274 -1 11 C-1.33 11 -1.66 11 -2 11 C-2.19622241 6.78121808 -1.80230168 3.82989106 0 0 Z " fill="#E0480E" transform="translate(65,105)"/>
<path d="M0 0 C1.10191901 4.40767604 0.58706842 5.8922935 -1 10 C-1.99 10 -2.98 10 -4 10 C-2.68 6.7 -1.36 3.4 0 0 Z " fill="#340801" transform="translate(135,130)"/>
</svg>
