<?xml version="1.0" encoding="UTF-8"?>
<svg version="1.1" xmlns="http://www.w3.org/2000/svg" width="128" height="128">
<path d="M0 0 C20.96291633 -1.90499303 20.96291633 -1.90499303 26.91796875 2.16796875 C29.98831106 4.80299929 32.47678685 7.84702622 35 11 C36.39798776 12.43510248 37.81287437 13.85409212 39.25 15.25 C40.17232422 16.19166016 40.17232422 16.19166016 41.11328125 17.15234375 C43.75777324 19.74208436 46.57793487 22.10432599 49.43359375 24.45703125 C51 26 51 26 52 29 C51.29875 29.556875 50.5975 30.11375 49.875 30.6875 C44.50610212 35.00596134 39.41297246 39.38258185 34.65625 44.37109375 C33 46 33 46 30 48 C31.31444175 51.94332524 33.84327343 53.43577567 37.0625 55.8125 C37.64797607 56.25464844 38.23345215 56.69679687 38.83666992 57.15234375 C41.42025153 59.09937014 44.02309948 61.01677787 46.640625 62.91796875 C47.35734375 63.44003906 48.0740625 63.96210937 48.8125 64.5 C49.43769531 64.9434375 50.06289062 65.386875 50.70703125 65.84375 C51.34705078 66.41609375 51.34705078 66.41609375 52 67 C52 67.66 52 68.32 52 69 C51.16984375 69.45246094 50.3396875 69.90492187 49.484375 70.37109375 C38.59972261 76.37349223 27.99670312 82.81158162 17.41113281 89.32202148 C16.51322777 89.8720005 16.51322777 89.8720005 15.59718323 90.43309021 C13.94904112 91.44268103 12.3029487 92.45561573 10.65698242 93.46875 C8 95 8 95 5 96 C5.66 94.68 6.32 93.36 7 92 C7.66 92 8.32 92 9 92 C9 91.34 9 90.68 9 90 C9.66 90 10.32 90 11 90 C11 89.34 11 88.68 11 88 C11.66 88 12.32 88 13 88 C13 87.34 13 86.68 13 86 C14.43359375 84.58984375 14.43359375 84.58984375 16.4375 82.9375 C21.22341701 78.87931634 25.6114377 74.47999069 30 70 C25.9791486 65.73474391 21.58792915 62.28495873 16.875 58.8125 C16.15957031 58.27947266 15.44414063 57.74644531 14.70703125 57.19726562 C11.83877625 55.06617897 8.97411745 52.98274497 6 51 C6 49 6 49 7.328125 47.66015625 C7.96234375 47.13292969 8.5965625 46.60570312 9.25 46.0625 C13.01122789 42.86646557 16.67875039 39.58904654 20.3125 36.25 C20.82780273 35.77828369 21.34310547 35.30656738 21.87402344 34.82055664 C24.29903279 32.593921 26.69940869 30.35555424 29 28 C28.27296875 27.33355469 27.5459375 26.66710937 26.796875 25.98046875 C26.31677979 25.54033447 25.83668457 25.1002002 25.34204102 24.64672852 C24.26980129 23.66393801 23.19736907 22.68135748 22.12475586 21.69897461 C19.31436108 19.12445152 16.5070557 16.54673866 13.70703125 13.9609375 C13.17948242 13.47471924 12.65193359 12.98850098 12.10839844 12.48754883 C10.63512117 11.12944406 9.16322754 9.76983877 7.69140625 8.41015625 C5.03105957 5.96770942 5.03105957 5.96770942 2.15234375 3.80859375 C1.44207031 3.21175781 0.73179688 2.61492188 0 2 C0 1.34 0 0.68 0 0 Z " fill="#C2B26F" transform="translate(63,20)"/>
<path d="M0 0 C21.68394005 -2.4318937 21.68394005 -2.4318937 28.4296875 2.87109375 C31.47053922 5.7842289 34.11265385 8.9959937 36.67333984 12.33398438 C38.3483782 14.43749224 40.23217196 16.11592179 42.3125 17.8125 C46.05162988 20.97514733 49.44752501 24.42711816 52.87890625 27.91796875 C54.70761589 29.71300049 56.56159307 31.34148247 58.5625 32.9375 C59.366875 33.618125 60.17125 34.29875 61 35 C61 35.66 61 36.32 61 37 C59.46804728 38.37212301 57.87078919 39.6715446 56.25 40.9375 C49.89520275 46.01142134 43.94157102 51.45245986 38 57 C42.31197838 61.5922982 47.07121111 64.98886348 52.26757812 68.51367188 C53.87789939 69.62982048 55.4434818 70.80996917 57 72 C57 72.66 57 73.32 57 74 C53.01681161 76.06370893 49.03323552 78.12666706 45.04931641 80.18896484 C43.69732456 80.88895967 42.3454343 81.58915073 40.99365234 82.28955078 C34.0176004 85.90389846 27.04189979 89.51497817 20 93 C21.35062287 89.97503419 22.85029237 87.9194306 25.22265625 85.6171875 C25.84333984 85.00746094 26.46402344 84.39773437 27.10351562 83.76953125 C28.07321289 82.83173828 28.07321289 82.83173828 29.0625 81.875 C30.3472393 80.62463926 31.62989681 79.37213484 32.91015625 78.1171875 C33.47871338 77.56659668 34.04727051 77.01600586 34.63305664 76.44873047 C36.10729905 75.02585988 36.10729905 75.02585988 37 73 C36.42024414 72.72526855 35.84048828 72.45053711 35.24316406 72.16748047 C31.47606662 70.20685139 28.16251465 67.63916716 24.75 65.125 C24.00492188 64.59519531 23.25984375 64.06539063 22.4921875 63.51953125 C21.78835937 63.00003906 21.08453125 62.48054688 20.359375 61.9453125 C19.71452148 61.47625488 19.06966797 61.00719727 18.40527344 60.52392578 C17 59 17 59 17 55 C18.25 53.32421875 18.25 53.32421875 20 51.6875 C20.63808594 51.08550781 21.27617188 50.48351563 21.93359375 49.86328125 C27.19201628 45.1217547 32.53831371 40.50589119 38 36 C26.6587984 24.50700411 14.72222483 13.52351271 1.90625 3.69921875 C1.2771875 3.13847656 0.648125 2.57773438 0 2 C0 1.34 0 0.68 0 0 Z " fill="#C1B16F" transform="translate(13,13)"/>
<path d="M0 0 C0.99 0.33 1.98 0.66 3 1 C1.35 2.32 -0.3 3.64 -2 5 C-1.67 5.66 -1.34 6.32 -1 7 C-4.63 8.98 -8.26 10.96 -12 13 C-11.34 11.68 -10.68 10.36 -10 9 C-9.34 9 -8.68 9 -8 9 C-8 8.34 -8 7.68 -8 7 C-7.34 7 -6.68 7 -6 7 C-6 6.34 -6 5.68 -6 5 C-5.34 5 -4.68 5 -4 5 C-4 4.34 -4 3.68 -4 3 C-2.1875 1.3125 -2.1875 1.3125 0 0 Z " fill="#938753" transform="translate(80,103)"/>
</svg>
