<?xml version="1.0" encoding="UTF-8"?>
<svg version="1.1" xmlns="http://www.w3.org/2000/svg" width="200" height="200">
<path d="M0 0 C2.89177566 1.35569067 4.82020937 3.26545754 7.12890625 5.46875 C10.85756867 8.97093723 14.64144459 12.31975744 18.62890625 15.53125 C23.08191012 19.12668536 27.36105609 22.86609322 31.58203125 26.73046875 C33.8492407 28.89951857 33.8492407 28.89951857 35.79893494 30.06463623 C38.91852427 32.20759871 40.76382915 33.8588749 41.77853394 37.58088684 C42.11046567 40.85245054 42.21997382 44.05918468 42.2421875 47.34765625 C42.2654863 48.55131332 42.2887851 49.7549704 42.31278992 50.99510193 C42.34818122 53.54089701 42.36465103 56.08701582 42.36352539 58.63305664 C42.37877731 62.49857079 42.50563456 66.34987191 42.63867188 70.21289062 C42.94251017 89.34135096 42.94251017 89.34135096 38.05908203 95.47705078 C35.24718826 98.34158376 32.19981437 100.66763675 28.82189941 102.82453918 C26.13185961 104.57787705 23.76355343 106.64245271 21.31640625 108.71875 C20.44242188 109.41871094 19.5684375 110.11867188 18.66796875 110.83984375 C15.11656021 113.74602641 11.73518171 116.8230013 8.35546875 119.92578125 C7.60007813 120.59996094 6.8446875 121.27414063 6.06640625 121.96875 C5.22851562 122.73574219 4.390625 123.50273437 3.52734375 124.29296875 C1.06640625 125.96875 1.06640625 125.96875 -0.92578125 125.96875 C-3.6322865 124.62076295 -5.74194382 122.91392545 -8.05859375 120.96875 C-9.03054687 120.1540625 -10.0025 119.339375 -11.00390625 118.5 C-14.51722227 115.46449496 -17.95845771 112.35706947 -21.390625 109.23046875 C-24.96080588 106.05514658 -28.66526615 103.05675835 -32.375 100.046875 C-41.66881226 92.49831298 -41.66881226 92.49831298 -42.93359375 89.96875 C-43.04943915 88.26990232 -43.10316522 86.56664713 -43.12646484 84.86401367 C-43.14252777 83.79918259 -43.1585907 82.7343515 -43.17514038 81.63725281 C-43.21952568 76.76525454 -43.26065228 71.89339331 -43.28369141 67.02124023 C-43.30025896 64.44985916 -43.32755904 61.87852428 -43.36572266 59.30737305 C-43.42041928 55.60441133 -43.44235534 51.90252975 -43.45703125 48.19921875 C-43.47970062 47.0501152 -43.50237 45.90101166 -43.52572632 44.71708679 C-43.5045016 36.71668128 -43.5045016 36.71668128 -40.54394531 32.83813477 C-39.25182129 31.91278931 -39.25182129 31.91278931 -37.93359375 30.96875 C-36.80050781 29.90914062 -36.80050781 29.90914062 -35.64453125 28.828125 C-30.46869105 24.15428936 -25.16923715 19.69178778 -19.74609375 15.30859375 C-15.82300376 12.04480083 -12.08496452 8.60404247 -8.34375 5.1328125 C-2.58078933 -0.04170973 -2.58078933 -0.04170973 0 0 Z " fill="#ABCBF4" transform="translate(82.93359375,10.03125)"/>
<path d="M0 0 C2.50469566 1.36945336 4.20497379 3.01198136 6.19506836 5.06274414 C7.40743164 6.29637695 7.40743164 6.29637695 8.64428711 7.55493164 C9.48088867 8.42118164 10.31749023 9.28743164 11.17944336 10.17993164 C16.36371325 15.50255724 21.50627481 20.7319127 27.22924805 25.48022461 C33.24018188 31.0475025 33.73239098 37.32939997 34.17651367 45.20141602 C33.46993003 59.92678644 21.05169232 69.12556786 10.88777161 78.4637146 C8.98178893 80.18412166 7.07682299 81.90150979 5.13745117 83.58422852 C4.35135468 84.26721008 4.35135468 84.26721008 3.54937744 84.96398926 C1.61821868 86.26452548 0.25520868 86.84255268 -2.07055664 87.05493164 C-3.6837616 86.04972839 -3.6837616 86.04972839 -5.26269531 84.44628906 C-5.85978806 83.85204636 -6.4568808 83.25780365 -7.07206726 82.64555359 C-7.70449844 81.99045303 -8.33692963 81.33535248 -8.98852539 80.66040039 C-9.64637527 79.99784744 -10.30422516 79.33529449 -10.98200989 78.65266418 C-13.08595249 76.52732275 -15.17164948 74.38497531 -17.25805664 72.24243164 C-18.67558212 70.80840638 -20.09418917 69.37544938 -21.51391602 67.94360352 C-24.10441197 65.31909432 -26.69443041 62.69423878 -29.26660156 60.05175781 C-30.04459358 59.25447517 -30.04459358 59.25447517 -30.83830261 58.44108582 C-34.3629541 54.47622933 -33.4591684 48.94240235 -33.57055664 43.92993164 C-33.62469727 42.90899414 -33.67883789 41.88805664 -33.73461914 40.83618164 C-33.82647388 35.73168263 -33.7033596 32.06875735 -30.30102539 28.09790039 C-28.90859254 26.73193964 -27.49568625 25.3867438 -26.07055664 24.05493164 C-24.65028123 22.57362583 -23.23044379 21.09187352 -21.81826782 19.60284424 C-19.73960261 17.42482637 -17.62527457 15.28329127 -15.50830078 13.14257812 C-14.41409168 12.03160331 -13.32530386 10.91526578 -12.24169922 9.79394531 C-10.66135623 8.15916487 -9.06547526 6.54115821 -7.46508789 4.92602539 C-6.98272171 4.42098984 -6.50035553 3.91595428 -6.00337219 3.39561462 C-2.65741935 0.07050104 -2.65741935 0.07050104 0 0 Z " fill="#010203" transform="translate(134.070556640625,104.945068359375)"/>
<path d="M0 0 C2.89177566 1.35569067 4.82020937 3.26545754 7.12890625 5.46875 C10.85756867 8.97093723 14.64144459 12.31975744 18.62890625 15.53125 C23.08191012 19.12668536 27.36105609 22.86609322 31.58203125 26.73046875 C33.8492407 28.89951857 33.8492407 28.89951857 35.79893494 30.06463623 C38.91852427 32.20759871 40.76382915 33.8588749 41.77853394 37.58088684 C42.11046567 40.85245054 42.21997382 44.05918468 42.2421875 47.34765625 C42.2654863 48.55131332 42.2887851 49.7549704 42.31278992 50.99510193 C42.34818122 53.54089701 42.36465103 56.08701582 42.36352539 58.63305664 C42.37877731 62.49857079 42.50563456 66.34987191 42.63867188 70.21289062 C42.94251017 89.34135096 42.94251017 89.34135096 38.05908203 95.47705078 C35.24718826 98.34158376 32.19981437 100.66763675 28.82189941 102.82453918 C26.13185961 104.57787705 23.76355343 106.64245271 21.31640625 108.71875 C20.44242188 109.41871094 19.5684375 110.11867188 18.66796875 110.83984375 C15.11656021 113.74602641 11.73518171 116.8230013 8.35546875 119.92578125 C7.60007813 120.59996094 6.8446875 121.27414063 6.06640625 121.96875 C5.22851562 122.73574219 4.390625 123.50273437 3.52734375 124.29296875 C1.06640625 125.96875 1.06640625 125.96875 -0.92578125 125.96875 C-3.6322865 124.62076295 -5.74194382 122.91392545 -8.05859375 120.96875 C-9.03054687 120.1540625 -10.0025 119.339375 -11.00390625 118.5 C-14.51722227 115.46449496 -17.95845771 112.35706947 -21.390625 109.23046875 C-24.96080588 106.05514658 -28.66526615 103.05675835 -32.375 100.046875 C-41.66881226 92.49831298 -41.66881226 92.49831298 -42.93359375 89.96875 C-43.04943915 88.26990232 -43.10316522 86.56664713 -43.12646484 84.86401367 C-43.14252777 83.79918259 -43.1585907 82.7343515 -43.17514038 81.63725281 C-43.21952568 76.76525454 -43.26065228 71.89339331 -43.28369141 67.02124023 C-43.30025896 64.44985916 -43.32755904 61.87852428 -43.36572266 59.30737305 C-43.42041928 55.60441133 -43.44235534 51.90252975 -43.45703125 48.19921875 C-43.47970062 47.0501152 -43.50237 45.90101166 -43.52572632 44.71708679 C-43.5045016 36.71668128 -43.5045016 36.71668128 -40.54394531 32.83813477 C-39.25182129 31.91278931 -39.25182129 31.91278931 -37.93359375 30.96875 C-36.80050781 29.90914062 -36.80050781 29.90914062 -35.64453125 28.828125 C-30.46869105 24.15428936 -25.16923715 19.69178778 -19.74609375 15.30859375 C-15.82300376 12.04480083 -12.08496452 8.60404247 -8.34375 5.1328125 C-2.58078933 -0.04170973 -2.58078933 -0.04170973 0 0 Z M-6.43359375 17.90625 C-10.81766308 21.97762734 -15.32967711 25.79744074 -20 29.53515625 C-20.96808594 30.33824219 -21.93617187 31.14132813 -22.93359375 31.96875 C-23.69019287 32.38471436 -24.44679199 32.80067871 -25.22631836 33.22924805 C-28.88351124 35.60887608 -31.38242531 37.81860827 -32.50021362 42.1791687 C-33.36469516 47.94106125 -33.43116036 53.69467178 -33.3815918 59.51147461 C-33.3711578 62.6370644 -33.4828999 65.74229844 -33.60351562 68.86523438 C-33.90102837 80.26588027 -33.90102837 80.26588027 -28.9284668 90.14477539 C-26.08507258 92.99655741 -23.01848839 95.42279849 -19.71330261 97.71583557 C-16.95614133 99.65687617 -14.43970991 101.84841939 -11.87109375 104.03125 C-10.22951425 105.34906651 -8.58392119 106.66190534 -6.93359375 107.96875 C-6.08925781 108.73058594 -5.24492188 109.49242188 -4.375 110.27734375 C-2.1508585 112.16117314 -2.1508585 112.16117314 0.09375 111.96875 C2.69380398 110.65070283 4.51321379 108.97639227 6.62890625 106.96875 C11.02559009 102.88935262 15.55492414 99.05950948 20.23046875 95.3046875 C21.16632813 94.53382812 22.1021875 93.76296875 23.06640625 92.96875 C23.7205249 92.50793533 24.37464355 92.04712067 25.04858398 91.57234192 C28.10579318 89.25383332 30.58959358 87.35115939 31.86654663 83.64892578 C32.22139512 80.95494989 32.33218366 78.36185154 32.33984375 75.64453125 C32.3617276 74.6618779 32.38361145 73.67922455 32.40615845 72.66679382 C32.43778381 70.59358598 32.44831114 68.51996118 32.43896484 66.4465332 C32.4413906 63.30153759 32.56069991 60.17532913 32.6875 57.03320312 C33.08583505 45.75746837 33.08583505 45.75746837 28.125 36.0703125 C25.2311725 33.38186417 22.09333818 31.16661275 18.75787354 29.06100464 C16.561996 27.64303017 14.6483973 25.98774632 12.70703125 24.2421875 C10.98365014 22.76885052 9.26010461 21.29572075 7.53515625 19.82421875 C5.31523406 17.92506514 3.13308469 16.03542844 1.06640625 13.96875 C-2.89141661 13.96875 -3.60083537 15.21604927 -6.43359375 17.90625 Z " fill="#010203" transform="translate(82.93359375,10.03125)"/>
<path d="M0 0 C4.11333499 1.78452711 6.18365837 4.27574966 8.984375 7.69140625 C10.9737812 10.07285316 10.9737812 10.07285316 13.453125 12.15234375 C18.49879768 16.7934106 21.13860687 21.14230754 21.5625 28.0625 C21.62540608 36.17282535 17.6062843 40.83020916 12.125 46.4375 C9.47500141 49.02841214 6.7610671 51.52871377 4 54 C3.34 54.66 2.68 55.32 2 56 C-1.86000741 55.74808373 -3.71778017 53.6243946 -6.3125 50.9375 C-7.09238281 50.13183594 -7.87226562 49.32617188 -8.67578125 48.49609375 C-11.86853559 45.06723656 -14.9513915 41.55670992 -18 38 C-18.33 37.67 -18.66 37.34 -19 37 C-20.54048569 22.62742736 -20.54048569 22.62742736 -17.4609375 17.375 C-15.40812437 15.40937199 -13.25950546 13.72133954 -11 12 C-9.7164988 10.61361293 -8.46493385 9.19685181 -7.25 7.75 C-4.93021817 5.05331998 -2.56870444 2.46595627 0 0 Z " fill="#ADCCF4" transform="translate(133,120)"/>
<path d="M0 0 C2.94545562 1.24303632 4.85800436 3.09841131 7.19140625 5.2734375 C8.04863281 6.06492187 8.90585938 6.85640625 9.7890625 7.671875 C10.56121094 8.40664063 11.33335938 9.14140625 12.12890625 9.8984375 C12.66104736 10.29853027 13.19318848 10.69862305 13.74145508 11.11083984 C16.77227294 15.01575773 15.72771966 21.1819427 15.73974609 25.98486328 C15.753779 28.12899528 15.82101982 30.26720524 15.890625 32.41015625 C16.04998728 42.38391342 16.04998728 42.38391342 13.65600586 46.3203125 C11.9092919 48.07469258 10.15915032 49.48926202 8.12890625 50.8984375 C7.44441406 51.56875 6.75992188 52.2390625 6.0546875 52.9296875 C5.25611328 53.65671875 5.25611328 53.65671875 4.44140625 54.3984375 C3.90128906 54.90375 3.36117187 55.4090625 2.8046875 55.9296875 C1.12890625 56.8984375 1.12890625 56.8984375 -0.83203125 56.76171875 C-3.29013644 55.7210267 -4.85014889 54.39701423 -6.80859375 52.5859375 C-8.97794963 50.59772068 -10.96869551 48.83538897 -13.44750977 47.23413086 C-17.50241684 43.3262739 -16.74175756 38.61911055 -16.84765625 33.3046875 C-16.85007324 32.18707031 -16.85007324 32.18707031 -16.85253906 31.046875 C-16.87090678 28.7963461 -16.97424063 26.56028064 -17.08203125 24.3125 C-17.335016 13.16039918 -17.335016 13.16039918 -13.45703125 8.68457031 C-4.34715779 -0.23596264 -4.34715779 -0.23596264 0 0 Z " fill="#3E64A0" transform="translate(82.87109375,46.1015625)"/>
<path d="M0 0 C2.91517292 1.07401108 4.77810176 1.77810176 7 4 C7.48451382 8.12651058 7.37039466 12.28578949 7.375 16.4375 C7.39949219 17.59572266 7.42398438 18.75394531 7.44921875 19.94726562 C7.45308594 21.05650391 7.45695312 22.16574219 7.4609375 23.30859375 C7.46915527 24.32751709 7.47737305 25.34644043 7.48583984 26.39624023 C7 29 7 29 5.13134766 30.86352539 C3 32 3 32 0.4375 31.875 C-2.24506363 30.91202844 -3.26216082 30.23022695 -5 28 C-5.66535935 24.24071968 -5.50936519 20.43663245 -5.5 16.625 C-5.52835937 15.5834375 -5.55671875 14.541875 -5.5859375 13.46875 C-5.60511605 5.96993517 -5.60511605 5.96993517 -3.8515625 3.15917969 C-2.46875 1.7734375 -2.46875 1.7734375 0 0 Z " fill="#A9CBF6" transform="translate(81,58)"/>
<path d="M0 0 C0 3.93448327 -1.26049854 4.64758459 -3.9375 7.4375 C-7.99966195 11.67160531 -9.13146009 14.40693129 -9.11352539 20.21777344 C-9.11344986 21.03832214 -9.11337433 21.85887085 -9.11329651 22.70428467 C-9.10813522 23.58046448 -9.10297394 24.45664429 -9.09765625 25.359375 C-9.0962413 26.26375305 -9.09482635 27.1681311 -9.09336853 28.09991455 C-9.08777911 30.98331027 -9.07522853 33.86662782 -9.0625 36.75 C-9.05748363 38.70703013 -9.05292096 40.66406147 -9.04882812 42.62109375 C-9.03781313 47.41409253 -9.02055574 52.20703302 -9 57 C-9.66 56.67 -10.32 56.34 -11 56 C-11.28068498 49.63306244 -11.47224349 43.26773591 -11.60424805 36.89599609 C-11.6593091 34.73262945 -11.73418834 32.5696674 -11.82983398 30.40771484 C-12.64882655 11.40883906 -12.64882655 11.40883906 -8.50244141 6.29199219 C-5.9478925 3.7477478 -3.13586856 1.7863234 0 0 Z " fill="#B6CBEA" transform="translate(62,40)"/>
<path d="M0 0 C0 3.91535091 -1.21206024 4.59834039 -3.875 7.375 C-6.82577655 10.45269167 -8.63746569 12.94108201 -10 17 C-10.33 17 -10.66 17 -11 17 C-11.34375 13.83984375 -11.34375 13.83984375 -11 10 C-9.16836737 7.81452925 -7.67799259 6.29900761 -5.5 4.5625 C-4.97535156 4.11712891 -4.45070313 3.67175781 -3.91015625 3.21289062 C-2.62192304 2.123748 -1.31290317 1.05927415 0 0 Z " fill="#A8C1E0" transform="translate(62,40)"/>
<path d="M0 0 C0 3.72038015 -0.90324391 4.44902879 -3.3125 7.1875 C-3.92738281 7.90292969 -4.54226562 8.61835938 -5.17578125 9.35546875 C-7 11 -7 11 -10 11 C-6.7 7.37 -3.4 3.74 0 0 Z " fill="#A6BDDC" transform="translate(127,126)"/>
<path d="M0 0 C0.99 0.99 1.98 1.98 3 3 C0.03 5.475 0.03 5.475 -3 8 C-3.66 7.34 -4.32 6.68 -5 6 C-3.68 5.67 -2.36 5.34 -1 5 C-1.33 4.01 -1.66 3.02 -2 2 C-1.34 1.34 -0.68 0.68 0 0 Z " fill="#A9C6E5" transform="translate(98,104)"/>
<path d="M0 0 C2.64 1.98 5.28 3.96 8 6 C6.68 6.33 5.36 6.66 4 7 C3.67 6.01 3.34 5.02 3 4 C2.34 4 1.68 4 1 4 C0.67 2.68 0.34 1.36 0 0 Z " fill="#A4BCDD" transform="translate(105,43)"/>
</svg>
