<?xml version="1.0" encoding="UTF-8"?>
<svg version="1.1" xmlns="http://www.w3.org/2000/svg" width="200" height="200">
<path d="M0 0 C4.46118338 2.36180296 6.6972576 4.56579686 9 9 C9.79614258 11.77636719 9.79614258 11.77636719 10.39453125 14.796875 C10.62454834 15.91271973 10.85456543 17.02856445 11.09155273 18.17822266 C11.44842163 19.94625244 11.44842163 19.94625244 11.8125 21.75 C16.01344863 41.43317013 20.18021201 55.32372008 35.640625 68.88671875 C43.31134975 75.75735135 49.51252585 84.55664471 50.203125 95.1015625 C50.36935234 107.59631773 47.92686872 119.70855924 38.99609375 129.109375 C27.370176 138.84270149 13.71936544 139.19455311 -0.75 139.125 C-2.32998779 139.11774902 -2.32998779 139.11774902 -3.94189453 139.11035156 C-33.30918322 138.88455356 -33.30918322 138.88455356 -45 128 C-53.80263324 118.54531985 -56.43257672 107.41233419 -56.2109375 94.83203125 C-55.37277609 79.60543227 -45.5544101 71.21080882 -34.90039062 61.41796875 C-24.11506777 51.05107885 -21.8712561 38.21470074 -19.01782227 24.11352539 C-15.51495572 6.98007115 -15.51495572 6.98007115 -9.125 1.5625 C-5.60204552 -0.19897724 -3.87541728 -0.64590288 0 0 Z " fill="#92E8FB" transform="translate(103,30)"/>
<path d="M0 0 C4.46118338 2.36180296 6.6972576 4.56579686 9 9 C9.79614258 11.77636719 9.79614258 11.77636719 10.39453125 14.796875 C10.62454834 15.91271973 10.85456543 17.02856445 11.09155273 18.17822266 C11.44842163 19.94625244 11.44842163 19.94625244 11.8125 21.75 C16.01344863 41.43317013 20.18021201 55.32372008 35.640625 68.88671875 C43.31134975 75.75735135 49.51252585 84.55664471 50.203125 95.1015625 C50.36935234 107.59631773 47.92686872 119.70855924 38.99609375 129.109375 C27.370176 138.84270149 13.71936544 139.19455311 -0.75 139.125 C-2.32998779 139.11774902 -2.32998779 139.11774902 -3.94189453 139.11035156 C-33.30918322 138.88455356 -33.30918322 138.88455356 -45 128 C-53.80263324 118.54531985 -56.43257672 107.41233419 -56.2109375 94.83203125 C-55.37277609 79.60543227 -45.5544101 71.21080882 -34.90039062 61.41796875 C-24.11506777 51.05107885 -21.8712561 38.21470074 -19.01782227 24.11352539 C-15.51495572 6.98007115 -15.51495572 6.98007115 -9.125 1.5625 C-5.60204552 -0.19897724 -3.87541728 -0.64590288 0 0 Z M-6.0390625 10.890625 C-8.70032513 15.11047571 -8.90008316 18.85650279 -9.375 23.75 C-10.59186034 33.79781453 -12.9372666 42.73637403 -17 52 C-17.45632812 53.0415625 -17.91265625 54.083125 -18.3828125 55.15625 C-22.29604564 62.77783497 -27.99872179 68.3704769 -34.22607422 74.13110352 C-39.99988434 79.56425745 -45.53367721 86.26961037 -46.203125 94.49609375 C-46.36561494 104.69233726 -45.36703481 114.33571412 -38.60546875 122.3828125 C-31.68502837 129.35376705 -24.21523235 130.3170185 -14.88671875 130.37109375 C-13.91773148 130.38012222 -12.9487442 130.3891507 -11.95039368 130.39845276 C-9.90551831 130.41292085 -7.86059702 130.42183341 -5.81567383 130.42553711 C-2.70769187 130.43742278 0.3982964 130.48663394 3.50585938 130.53710938 C5.49999039 130.54657619 7.4941335 130.55380999 9.48828125 130.55859375 C10.40732742 130.57812607 11.3263736 130.59765839 12.27326965 130.61778259 C19.97700455 130.56463031 25.38032487 128.00912752 31.26953125 123.11328125 C38.08045552 115.16432913 40.7235631 107.67681828 40.3046875 97.16796875 C39.16249283 85.29207291 33.54935511 79.13767774 24.98828125 71.1953125 C9.68366639 56.84362649 4.17799709 37.85774167 2.65234375 17.35546875 C1.90780997 13.525801 0.74945305 11.72866323 -2 9 C-4.21901718 8.77336263 -4.21901718 8.77336263 -6.0390625 10.890625 Z " fill="#010304" transform="translate(103,30)"/>
<path d="M0 0 C2 1 2 1 3.1875 3.6875 C5.91632218 8.67465778 9.48739107 11.94413158 14.7421875 14.15234375 C22.79107552 16.24659879 33.40784307 16.23310795 41.16796875 13.1171875 C45.87678666 10.24571219 48.68776309 5.89333857 51 1 C51.99 1 52.98 1 54 1 C53.55703084 9.26875762 50.7050284 14.73317184 44.625 20.375 C37.49918739 26.65835201 26.86252371 25.5433306 18 25 C11.38996461 24.06627472 7.56864523 21.39682252 3.44140625 16.1875 C0.40195007 11.57477517 -1.68279429 6.63305287 -1 1 C-0.67 0.67 -0.34 0.34 0 0 Z " fill="#4A96A8" transform="translate(74,123)"/>
<path d="M0 0 C0.33 0.66 0.66 1.32 1 2 C-0.10281127 3.27200971 -1.20730769 4.54255853 -2.3125 5.8125 C-2.92738281 6.52019531 -3.54226562 7.22789063 -4.17578125 7.95703125 C-5.73334335 9.70136739 -7.32658875 11.36778041 -9 13 C-9.66 12.67 -10.32 12.34 -11 12 C-3.70159453 3.55353075 -3.70159453 3.55353075 0 0 Z " fill="#8DCFDC" transform="translate(73,100)"/>
<path d="M0 0 C0.99 0 1.98 0 3 0 C2.67 2.64 2.34 5.28 2 8 C-1 8 -1 8 -4 7 C-2.68 4.69 -1.36 2.38 0 0 Z " fill="#4FA1B3" transform="translate(125,124)"/>
</svg>
