<?xml version="1.0" encoding="UTF-8"?>
<svg version="1.1" xmlns="http://www.w3.org/2000/svg" width="128" height="128">
<path d="M0 0 C2.5 1.375 2.5 1.375 5 3 C5 3.66 5 4.32 5 5 C5.66 5 6.32 5 7 5 C8.4453125 6.50390625 8.4453125 6.50390625 10.125 8.5625 C13.25527277 12.27805486 16.60110433 15.33910228 20.3984375 18.359375 C22.21384181 20.21905746 22.61397179 21.46324316 23 24 C23.66 24 24.32 24 25 24 C25 24.66 25 25.32 25 26 C25.66 26 26.32 26 27 26 C28.38232443 27.62626404 29.71937515 29.2925002 31 31 C31.63615234 29.49373047 31.63615234 29.49373047 32.28515625 27.95703125 C36.09757596 19.03252819 40.23539346 10.45753867 45 2 C45.66 2 46.32 2 47 2 C47.99 2.99 47.99 2.99 49 4 C48.96523339 5.56667024 48.92829767 7.13331135 48.8828125 8.69970703 C49.14663356 13.87829457 50.73572826 18.92881983 52 23.9375 C52.28617187 25.09830078 52.57234375 26.25910156 52.8671875 27.45507812 C53.57093467 30.30525417 54.28205799 33.15337266 55 36 C62.64294341 36 72.15684627 26.37681097 78 22 C78.66 22.33 79.32 22.66 80 23 C79.80664062 23.556875 79.61328125 24.11375 79.4140625 24.6875 C77.68625575 29.75117127 76.2306933 34.79322065 75 40 C74.34 40 73.68 40 73 40 C73 42.64 73 45.28 73 48 C72.01 48.495 72.01 48.495 71 49 C70.09274566 51.11327425 70.09274566 51.11327425 69.375 53.5625 C69.11460938 54.38878906 68.85421875 55.21507812 68.5859375 56.06640625 C68.39257812 56.70449219 68.19921875 57.34257813 68 58 C69.04800781 57.62746094 70.09601563 57.25492188 71.17578125 56.87109375 C72.55452301 56.39275477 73.93343843 55.91491617 75.3125 55.4375 C76.34793945 55.0672168 76.34793945 55.0672168 77.40429688 54.68945312 C82.66015625 52.88671875 82.66015625 52.88671875 86 54 C82.09254509 62.02869155 78.04354176 69.84801461 73.3828125 77.4765625 C71.78607984 80.13737177 71.78607984 80.13737177 71 84 C74.96 84 78.92 84 83 84 C83 84.66 83 85.32 83 86 C81.89140625 86.61488281 80.7828125 87.22976562 79.640625 87.86328125 C78.17699811 88.67953471 76.71346116 89.49594944 75.25 90.3125 C74.52039063 90.71662109 73.79078125 91.12074219 73.0390625 91.53710938 C68.83929128 93.84246149 68.83929128 93.84246149 65.05859375 96.75 C61.57790371 98.86351198 57.80931856 98.58952987 53.8125 98.6875 C52.872854 98.71440918 51.93320801 98.74131836 50.96508789 98.76904297 C48.84375913 98.82342302 46.72222464 98.87012167 44.60058594 98.91064453 C41.33831322 98.99160411 38.08435186 99.1261448 34.82496643 99.27809143 C31.91845095 99.40318384 29.01158835 99.48495984 26.10336304 99.55874634 C24.67865846 99.60232799 23.25432706 99.66129297 21.83096313 99.73690796 C11.70614885 100.2540183 5.17793926 98.3628817 -2.71655273 92.14208984 C-3.47009033 91.4352002 -4.22362793 90.72831055 -5 90 C-5 89.34 -5 88.68 -5 88 C-5.804375 87.731875 -6.60875 87.46375 -7.4375 87.1875 C-8.283125 86.795625 -9.12875 86.40375 -10 86 C-10.33 85.01 -10.66 84.02 -11 83 C-9.02 82.505 -9.02 82.505 -7 82 C-7 82.66 -7 83.32 -7 84 C-4.02148438 83.95117188 -4.02148438 83.95117188 -1.04296875 83.90234375 C1 84 1 84 4 85 C-6.04814569 68.66762867 -6.04814569 68.66762867 -17 52.9375 C-19 50 -19 50 -19 47 C-15.04079723 47.64057711 -11.08280513 48.28834808 -7.125 48.9375 C-5.99707031 49.11990234 -4.86914062 49.30230469 -3.70703125 49.49023438 C-2.63066406 49.66748047 -1.55429687 49.84472656 -0.4453125 50.02734375 C0.54968262 50.18968506 1.54467773 50.35202637 2.56982422 50.51928711 C5 51 5 51 7 52 C6.02305542 45.54019498 5.044269 39.08067097 4.06420898 32.62133789 C3.73110339 30.42446193 3.3984176 28.22752227 3.06616211 26.03051758 C2.58818465 22.87043642 2.10869201 19.7105883 1.62890625 16.55078125 C1.48095108 15.57039383 1.33299591 14.59000641 1.18055725 13.57991028 C1.04048752 12.65933334 0.90041779 11.73875641 0.75610352 10.7902832 C0.63396988 9.9842012 0.51183624 9.1781192 0.38600159 8.34761047 C0.10580011 6.64346224 -0.23419653 4.94880858 -0.60975647 3.2631073 C-0.73853683 2.51628189 -0.8673172 1.76945648 -1 1 C-0.67 0.67 -0.34 0.34 0 0 Z " fill="#8D6A50" transform="translate(31,16)"/>
<path d="M0 0 C3.70569496 2.78089938 6.56080039 5.6871406 9.4375 9.3125 C12.88481048 13.612991 16.39047749 17.83516634 20 22 C24.12417063 20.3383196 27.06554039 17.37661982 30.25 14.375 C30.80429688 13.859375 31.35859375 13.34375 31.9296875 12.8125 C33.2902712 11.54574965 34.64565837 10.27342185 36 9 C36.66 9.33 37.32 9.66 38 10 C37.86722656 10.99 37.73445313 11.98 37.59765625 13 C36.70559299 19.66349336 35.81712495 26.32681287 35 33 C35.65226562 32.79503906 36.30453125 32.59007812 36.9765625 32.37890625 C41.63474466 30.94297694 46.15149758 29.63796084 51 29 C49.81183749 34.46554754 47.62043674 38.49682649 44.6640625 43.22265625 C41.80678643 47.99149026 39.42265903 53.00004412 37 58 C40.3 58 43.6 58 47 58 C47 58.33 47 58.66 47 59 C34.523414 59.74726077 22.04795219 60.14661382 9.55001831 60.23217773 C8.05918396 60.24405252 6.56838194 60.26113672 5.07766724 60.28344727 C2.964335 60.31333141 0.85180079 60.32335666 -1.26171875 60.328125 C-3.10189575 60.34214355 -3.10189575 60.34214355 -4.97924805 60.35644531 C-8 60 -8 60 -11 57 C-6.71 57 -2.42 57 2 57 C-3.81557325 45.15363306 -3.81557325 45.15363306 -10.1875 33.6015625 C-11 32 -11 32 -11 30 C-9.39536551 30.31008884 -7.79130769 30.62316287 -6.1875 30.9375 C-5.29417969 31.11152344 -4.40085937 31.28554687 -3.48046875 31.46484375 C-1 32 -1 32 2 33 C1.93941406 32.24904053 1.87882812 31.49808105 1.81640625 30.72436523 C1.54140958 27.29563274 1.27066846 23.86657677 1 20.4375 C0.90460937 19.25607422 0.80921875 18.07464844 0.7109375 16.85742188 C0.26898095 11.22247585 -0.1328126 5.65283608 0 0 Z " fill="#7A4925" transform="translate(47,55)"/>
<path d="M0 0 C0.66 0 1.32 0 2 0 C3.296875 1.65234375 3.296875 1.65234375 4.75 3.9375 C5.27335937 4.7521875 5.79671875 5.566875 6.3359375 6.40625 C6.88507812 7.2621875 7.43421875 8.118125 8 9 C9.62832966 11.38723444 11.26080715 13.77148116 12.8984375 16.15234375 C14 18 14 18 14 20 C18.58913637 16.39424999 22.32167983 12.52615993 26 8 C27.23608129 10.47216257 26.91510446 11.44220669 26.44140625 14.1328125 C26.23354492 15.34130859 26.23354492 15.34130859 26.02148438 16.57421875 C25.87001953 17.41597656 25.71855469 18.25773437 25.5625 19.125 C25.41490234 19.97449219 25.26730469 20.82398437 25.11523438 21.69921875 C24.74928158 23.80049611 24.37538532 25.90038721 24 28 C24.69867188 27.6390625 25.39734375 27.278125 26.1171875 26.90625 C27.02726562 26.4421875 27.93734375 25.978125 28.875 25.5 C29.77992187 25.0359375 30.68484375 24.571875 31.6171875 24.09375 C34 23 34 23 36 23 C35.34664121 24.67192838 34.67510333 26.33673282 34 28 C33.74782715 28.66209473 33.4956543 29.32418945 33.23583984 30.00634766 C31.03672125 35.5035343 28.6737915 41.18207236 24 45 C17.24130633 47.09567845 9.88760875 46.05034608 3 45 C1.4933028 42.2118978 -0.00419804 39.41896042 -1.5 36.625 C-1.92925781 35.8309375 -2.35851563 35.036875 -2.80078125 34.21875 C-3.20683594 33.45820312 -3.61289062 32.69765625 -4.03125 31.9140625 C-4.59682617 30.8614624 -4.59682617 30.8614624 -5.17382812 29.78759766 C-6 28 -6 28 -6 26 C-2.40608886 27.33488128 0.75490696 28.96022723 4 31 C3.31904141 24.41740029 2.42732119 17.8809139 1.4765625 11.33203125 C0.93696507 7.55927216 0.4540643 3.78386914 0 0 Z " fill="#CA966E" transform="translate(52,68)"/>
<path d="M0 0 C0.66 0.33 1.32 0.66 2 1 C2 1.66 2 2.32 2 3 C3.65 2.34 5.3 1.68 7 1 C8.16907584 3.31131066 9.33535892 5.62395623 10.5 7.9375 C10.83386719 8.59685547 11.16773437 9.25621094 11.51171875 9.93554688 C14 14.88671875 14 14.88671875 14 16 C12.10448978 16.05441656 10.2085208 16.09298035 8.3125 16.125 C7.25675781 16.14820312 6.20101562 16.17140625 5.11328125 16.1953125 C0.38416044 15.89862989 -3.0017037 14.22318341 -6.8125 11.5 C-7.41707031 11.0771875 -8.02164062 10.654375 -8.64453125 10.21875 C-9.09183594 9.8165625 -9.53914063 9.414375 -10 9 C-10 8.34 -10 7.68 -10 7 C-10.804375 6.731875 -11.60875 6.46375 -12.4375 6.1875 C-13.283125 5.795625 -14.12875 5.40375 -15 5 C-15.33 4.01 -15.66 3.02 -16 2 C-14.68 1.67 -13.36 1.34 -12 1 C-12 1.66 -12 2.32 -12 3 C-10.01432292 2.96744792 -8.02864583 2.93489583 -6.04296875 2.90234375 C-4 3 -4 3 -1 4 C-0.67 2.68 -0.34 1.36 0 0 Z " fill="#8D6A50" transform="translate(36,97)"/>
<path d="M0 0 C0.495 0.99 0.495 0.99 1 2 C1.99 2 2.98 2 4 2 C3.62308621 8.91008622 1.60066139 13.09122233 -2 19 C1.3 19 4.6 19 8 19 C8 19.33 8 19.66 8 20 C-4.476586 20.74726077 -16.95204781 21.14661382 -29.44998169 21.23217773 C-30.94081604 21.24405252 -32.43161806 21.26113672 -33.92233276 21.28344727 C-36.035665 21.31333141 -38.14819921 21.32335666 -40.26171875 21.328125 C-42.10189575 21.34214355 -42.10189575 21.34214355 -43.97924805 21.35644531 C-47 21 -47 21 -50 18 C-44.39 18.33 -38.78 18.66 -33 19 C-33 18.34 -33 17.68 -33 17 C-32.34 17 -31.68 17 -31 17 C-31 17.66 -31 18.32 -31 19 C-24.06501756 19.75991941 -16.639623 20.49033827 -10 18 C-4.8707583 13.29154117 -2.30258464 6.44435274 0 0 Z " fill="#7B4A26" transform="translate(86,94)"/>
<path d="M0 0 C4.62 0.66 9.24 1.32 14 2 C13.01 2.33 12.02 2.66 11 3 C10.8453125 4.918125 10.8453125 4.918125 10.6875 6.875 C10.51171875 9.0546875 10.51171875 9.0546875 10 11 C9.01 11.66 8.02 12.32 7 13 C5.82479354 11.40207898 4.66008753 9.79643092 3.5 8.1875 C2.8503125 7.29417969 2.200625 6.40085937 1.53125 5.48046875 C0 3 0 3 0 0 Z " fill="#715542" transform="translate(12,63)"/>
<path d="M0 0 C0.66 0 1.32 0 2 0 C2 0.66 2 1.32 2 2 C14.87 2 27.74 2 41 2 C41 2.33 41 2.66 41 3 C28.523414 3.74726077 16.04795219 4.14661382 3.55001831 4.23217773 C2.05918396 4.24405252 0.56838194 4.26113672 -0.92233276 4.28344727 C-3.035665 4.31333141 -5.14819921 4.32335666 -7.26171875 4.328125 C-9.10189575 4.34214355 -9.10189575 4.34214355 -10.97924805 4.35644531 C-14 4 -14 4 -17 1 C-11.39 1.33 -5.78 1.66 0 2 C0 1.34 0 0.68 0 0 Z " fill="#5C3E2D" transform="translate(53,111)"/>
<path d="M0 0 C1.5159375 0.2475 1.5159375 0.2475 3.0625 0.5 C6.76262933 0.96985769 10.27607391 1.07599849 14 1 C14 1.66 14 2.32 14 3 C8.72 5.97 3.44 8.94 -2 12 C-2 11.01 -2 10.02 -2 9 C-1.0409375 8.5978125 -1.0409375 8.5978125 -0.0625 8.1875 C2.33131686 7.11332248 2.33131686 7.11332248 3 4 C1.68 3.67 0.36 3.34 -1 3 C-0.67 2.01 -0.34 1.02 0 0 Z " fill="#7E5F4A" transform="translate(100,99)"/>
<path d="M0 0 C0.66 0.33 1.32 0.66 2 1 C1.54738642 2.43931117 1.08767021 3.87638999 0.625 5.3125 C0.36976562 6.11300781 0.11453125 6.91351563 -0.1484375 7.73828125 C-1 10 -1 10 -3 13 C-3.268125 12.21625 -3.53625 11.4325 -3.8125 10.625 C-4.84814432 7.71885077 -4.84814432 7.71885077 -8 6 C-5.36 4.02 -2.72 2.04 0 0 Z " fill="#735A46" transform="translate(109,38)"/>
<path d="M0 0 C2.5 1.375 2.5 1.375 5 3 C5 3.66 5 4.32 5 5 C5.66 5 6.32 5 7 5 C7 5.66 7 6.32 7 7 C5.68 7.33 4.36 7.66 3 8 C3 11.96 3 15.92 3 20 C2.67 20 2.34 20 2 20 C1.47008907 16.8556249 0.95259982 13.70933252 0.4375 10.5625 C0.28603516 9.66466797 0.13457031 8.76683594 -0.02148438 7.84179688 C-0.16005859 6.98779297 -0.29863281 6.13378906 -0.44140625 5.25390625 C-0.57232666 4.46314697 -0.70324707 3.6723877 -0.83813477 2.85766602 C-0.89155029 2.24463623 -0.94496582 1.63160645 -1 1 C-0.67 0.67 -0.34 0.34 0 0 Z " fill="#5B4334" transform="translate(31,16)"/>
<path d="M0 0 C0.66 0 1.32 0 2 0 C4 2 4 2 4.1953125 4.6015625 C4.17210938 5.59929688 4.14890625 6.59703125 4.125 7.625 C4.10695313 8.62789062 4.08890625 9.63078125 4.0703125 10.6640625 C4.03550781 11.82035156 4.03550781 11.82035156 4 13 C-0.29547224 10.10713094 -0.29547224 10.10713094 -2 8 C-1.89830508 1.89830508 -1.89830508 1.89830508 0 0 Z " fill="#654D3C" transform="translate(76,18)"/>
<path d="M0 0 C0.33 0.66 0.66 1.32 1 2 C2.98 2 4.96 2 7 2 C6.67 2.66 6.34 3.32 6 4 C6.60578253 6.01927511 7.26919734 8.02253397 8 10 C5.525 9.01 5.525 9.01 3 8 C3 7.34 3 6.68 3 6 C2.195625 5.731875 1.39125 5.46375 0.5625 5.1875 C-0.283125 4.795625 -1.12875 4.40375 -2 4 C-2.33 3.01 -2.66 2.02 -3 1 C-2.01 0.67 -1.02 0.34 0 0 Z " fill="#6E5542" transform="translate(23,98)"/>
<path d="M0 0 C2 1 2 1 2 1 Z M-4 1 C-1.875 1.9375 -1.875 1.9375 0 3 C-0.99 4.485 -0.99 4.485 -2 6 C-2.66 6 -3.32 6 -4 6 C-3.34 7.32 -2.68 8.64 -2 10 C-3.32 9.34 -4.64 8.68 -6 8 C-6 6 -6 4 -6 2 C-5.34 1.67 -4.68 1.34 -4 1 Z " fill="#7D5C44" transform="translate(38,102)"/>
<path d="M0 0 C1.5159375 0.2475 1.5159375 0.2475 3.0625 0.5 C6.76262933 0.96985769 10.27607391 1.07599849 14 1 C14 1.66 14 2.32 14 3 C12.35 3.66 10.7 4.32 9 5 C9 4.34 9 3.68 9 3 C5.7 3 2.4 3 -1 3 C-0.67 2.01 -0.34 1.02 0 0 Z " fill="#452E22" transform="translate(100,99)"/>
<path d="M0 0 C0.66 0 1.32 0 2 0 C1.67 1.32 1.34 2.64 1 4 C-1.43816585 4.0809723 -3.87364384 4.14046972 -6.3125 4.1875 C-7.34793945 4.22520508 -7.34793945 4.22520508 -8.40429688 4.26367188 C-10.42578125 4.29296875 -10.42578125 4.29296875 -14 4 C-14.99 3.01 -15.98 2.02 -17 1 C-11.39 1.33 -5.78 1.66 0 2 C0 1.34 0 0.68 0 0 Z " fill="#472E1C" transform="translate(53,111)"/>
<path d="M0 0 C3.3 0.33 6.6 0.66 10 1 C9.34 1.66 8.68 2.32 8 3 C6.68 3 5.36 3 4 3 C4.33 4.32 4.66 5.64 5 7 C3.0625 6.3125 3.0625 6.3125 1 5 C0.25 2.375 0.25 2.375 0 0 Z " fill="#90705A" transform="translate(28,101)"/>
<path d="M0 0 C1.32 0 2.64 0 4 0 C4.33 1.32 4.66 2.64 5 4 C4.01 3.67 3.02 3.34 2 3 C2 4.32 2 5.64 2 7 C1.34 7 0.68 7 0 7 C-0.38133299 5.0085944 -0.71325582 3.00720923 -1 1 C-0.67 0.67 -0.34 0.34 0 0 Z " fill="#966F55" transform="translate(34,23)"/>
<path d="M0 0 C0.33 0.66 0.66 1.32 1 2 C2.98 2 4.96 2 7 2 C7 2.33 7 2.66 7 3 C5.35 3.33 3.7 3.66 2 4 C2.33 4.66 2.66 5.32 3 6 C0.5625 5.1875 0.5625 5.1875 -2 4 C-2.33 3.01 -2.66 2.02 -3 1 C-2.01 0.67 -1.02 0.34 0 0 Z " fill="#3D2D22" transform="translate(23,98)"/>
<path d="M0 0 C1.98 0.495 1.98 0.495 4 1 C4 1.99 4 2.98 4 4 C3.34 4 2.68 4 2 4 C2.33 5.32 2.66 6.64 3 8 C0.9375 6.25 0.9375 6.25 -1 4 C-0.75 1.75 -0.75 1.75 0 0 Z " fill="#74431F" transform="translate(60,73)"/>
<path d="M0 0 C0.66 0.33 1.32 0.66 2 1 C1.34 3.31 0.68 5.62 0 8 C-0.33 6.68 -0.66 5.36 -1 4 C-2.32 4.33 -3.64 4.66 -5 5 C-3.35 3.35 -1.7 1.7 0 0 Z " fill="#3B2C21" transform="translate(109,38)"/>
<path d="M0 0 C0.33 0.66 0.66 1.32 1 2 C0.22265625 3.7265625 0.22265625 3.7265625 -0.9375 5.625 C-1.618125 6.73875 -2.29875 7.8525 -3 9 C-3.33 9 -3.66 9 -4 9 C-4 7.02 -4 5.04 -4 3 C-3.34 3 -2.68 3 -2 3 C-2 2.34 -2 1.68 -2 1 C-1.34 0.67 -0.68 0.34 0 0 Z " fill="#604737" transform="translate(110,80)"/>
<path d="M0 0 C2.02350324 3.03525486 2.32124018 4.19426202 2.625 7.6875 C2.69976562 8.49574219 2.77453125 9.30398437 2.8515625 10.13671875 C2.90054688 10.75160156 2.94953125 11.36648437 3 12 C2.01 11.67 1.02 11.34 0 11 C0 7.37 0 3.74 0 0 Z " fill="#5C4332" transform="translate(82,40)"/>
<path d="M0 0 C0.78375 0.04125 1.5675 0.0825 2.375 0.125 C0.02222731 2.84926311 -2.24996331 3.9391763 -5.625 5.125 C-4.41988658 1.50965974 -3.92406511 0.18686024 0 0 Z " fill="#584130" transform="translate(102.625,105.875)"/>
<path d="M0 0 C0.99 0.33 1.98 0.66 3 1 C3.33 2.65 3.66 4.3 4 6 C3.01 6 2.02 6 1 6 C0.67 4.02 0.34 2.04 0 0 Z " fill="#6A5140" transform="translate(32,92)"/>
<path d="M0 0 C1.98 0.99 1.98 0.99 4 2 C2.68 2 1.36 2 0 2 C0 1.34 0 0.68 0 0 Z " fill="#060102" transform="translate(103,98)"/>
<path d="M0 0 C0.66 0 1.32 0 2 0 C1.67 0.66 1.34 1.32 1 2 C0.67 1.34 0.34 0.68 0 0 Z " fill="#03070B" transform="translate(60,43)"/>
<path d="" fill="#03030A" transform="translate(0,0)"/>
<path d="M0 0 C2 1 2 1 2 1 Z " fill="#020206" transform="translate(30,64)"/>
<path d="M0 0 C2 1 2 1 2 1 Z " fill="#0B0404" transform="translate(60,40)"/>
<path d="" fill="#020005" transform="translate(0,0)"/>
<path d="" fill="#010304" transform="translate(0,0)"/>
<path d="" fill="#000306" transform="translate(0,0)"/>
<path d="" fill="#0A0708" transform="translate(0,0)"/>
<path d="" fill="#04060A" transform="translate(0,0)"/>
<path d="" fill="#0C0A0A" transform="translate(0,0)"/>
<path d="" fill="#0C0F0E" transform="translate(0,0)"/>
<path d="" fill="#0E0A06" transform="translate(0,0)"/>
<path d="" fill="#090504" transform="translate(0,0)"/>
<path d="" fill="#050709" transform="translate(0,0)"/>
<path d="" fill="#0D0007" transform="translate(0,0)"/>
<path d="" fill="#030507" transform="translate(0,0)"/>
<path d="" fill="#070201" transform="translate(0,0)"/>
<path d="" fill="#04050C" transform="translate(0,0)"/>
<path d="" fill="#090A05" transform="translate(0,0)"/>
<path d="" fill="#090B0A" transform="translate(0,0)"/>
<path d="" fill="#03060C" transform="translate(0,0)"/>
<path d="" fill="#000408" transform="translate(0,0)"/>
<path d="" fill="#010304" transform="translate(0,0)"/>
<path d="" fill="#070707" transform="translate(0,0)"/>
<path d="" fill="#030507" transform="translate(0,0)"/>
<path d="" fill="#0C0B0E" transform="translate(0,0)"/>
<path d="" fill="#151312" transform="translate(0,0)"/>
<path d="" fill="#08080A" transform="translate(0,0)"/>
<path d="" fill="#0A0708" transform="translate(0,0)"/>
<path d="" fill="#04060A" transform="translate(0,0)"/>
</svg>
