<?xml version="1.0" encoding="UTF-8"?>
<svg version="1.1" xmlns="http://www.w3.org/2000/svg" width="512" height="512">
<path d="M0 0 C0.82242187 0.05542969 1.64484375 0.11085937 2.4921875 0.16796875 C7.28390866 1.34101622 10.3104319 3.5440518 12.96875 7.68359375 C13.78859375 9.44896484 13.78859375 9.44896484 14.625 11.25 C15.3085911 12.69140751 15.9921851 14.13281364 16.67578125 15.57421875 C17.05686035 16.39325684 17.43793945 17.21229492 17.83056641 18.05615234 C19.28937636 21.16252058 20.78835331 24.24759186 22.29296875 27.33203125 C28.67532859 40.42863004 34.9146204 53.58493425 41.02490234 66.81103516 C45.44694183 76.37645849 49.93214075 85.91106187 54.4375 95.4375 C55.15430536 96.95360927 55.87110223 98.46972255 56.58789062 99.98583984 C57.67037632 102.27530381 58.75290917 104.56474543 59.83557129 106.85412598 C63.52611651 114.65877581 67.21077151 122.46619258 70.88973999 130.27630615 C71.57866864 131.73844098 72.26796863 133.20040092 72.95767212 134.66217041 C83.125 156.21188245 83.125 156.21188245 83.125 158.8125 C83.97327866 158.90081589 84.82155731 158.98913177 85.69554138 159.0801239 C101.45263284 160.82423346 117.11287342 163.27444667 132.78515625 165.64453125 C133.94425542 165.81973569 133.94425542 165.81973569 135.12677073 165.9984796 C142.43219053 167.10306912 149.73722769 168.21015974 157.04139042 169.32303333 C166.32269822 170.73696549 175.60570311 172.13843824 184.89137179 173.52345067 C191.46022315 174.50428892 198.02683898 175.49927184 204.59197515 176.50467318 C208.49859152 177.10255247 212.40590412 177.69426715 216.31575203 178.27066994 C219.98500019 178.81189611 223.65115425 179.37066907 227.3157196 179.9427166 C229.28978805 180.24633966 231.26663242 180.53174214 233.24351501 180.81646729 C241.24260829 182.08791608 247.85177144 183.76147456 253.09765625 190.25390625 C254.29568267 193.23758423 254.55836527 195.53731862 254.5625 198.75 C254.58183594 199.74902344 254.60117187 200.74804688 254.62109375 201.77734375 C253.55474155 208.30140405 248.24225496 213.08381389 243.83984375 217.72265625 C243.22954819 218.37089859 242.61925262 219.01914093 241.99046326 219.68702698 C235.0412715 227.0257723 227.87112104 234.14198655 220.6875 241.25 C218.0815991 243.82899301 215.47928086 246.41153008 212.87890625 248.99609375 C212.30274063 249.56396103 211.72657501 250.13182831 211.13294983 250.71690369 C208.19480036 253.63756306 205.38888655 256.6195345 202.68139648 259.75610352 C199.12227207 263.87120527 195.33861547 267.70976665 191.46875 271.53125 C190.4098053 272.58451477 190.4098053 272.58451477 189.32946777 273.65905762 C186.34602625 276.62633766 183.3565929 279.58755363 180.36767578 282.54931641 C178.17009421 284.72868465 175.97562062 286.91114947 173.78125 289.09375 C173.11750366 289.749198 172.45375732 290.404646 171.76989746 291.07995605 C168.55131256 294.28186541 165.45751424 297.53270336 162.4921875 300.97167969 C159.7036958 304.20329086 156.76811373 307.12331615 153.59375 309.984375 C152.60761562 310.90436774 151.62328943 311.82630185 150.640625 312.75 C149.13021006 314.16786018 147.61403706 315.57222807 146.06445312 316.94726562 C144.54246778 318.30419329 143.06744248 319.70036438 141.59375 321.109375 C140.71138672 321.91729492 139.82902344 322.72521484 138.91992188 323.55761719 C134.38238913 331.78590698 139.04182781 345.19126015 140.53344727 354.10864258 C140.78032023 355.60635527 141.0267574 357.10413986 141.27279663 358.60198975 C141.79939213 361.80253631 142.32886737 365.00258767 142.86062813 368.20228004 C143.70200538 373.26602729 144.53587506 378.33099377 145.36863708 383.39616394 C147.4366646 395.96740259 149.51490294 408.53695069 151.59423828 421.10632324 C153.21371856 430.8968087 154.83056659 440.68771448 156.43984646 450.47988242 C157.26707393 455.51154978 158.099586 460.54230488 158.9361707 465.57242453 C159.45539224 468.70132196 159.96995522 471.83097252 160.48325729 474.96084595 C160.72155343 476.40793159 160.96176693 477.85470305 161.20407295 479.30112267 C161.53544965 481.28088543 161.85921151 483.26191823 162.18263245 485.24299622 C162.36569222 486.34923245 162.548752 487.45546869 162.73735905 488.59522724 C163.52960174 495.17054089 163.38913481 499.93705734 160.125 505.8125 C156.00255799 510.07785333 152.60606961 511.9934302 146.70703125 512.23046875 C139.56394038 512.1570699 134.84741695 509.72477502 128.8125 506.125 C127.78125 505.53847656 126.75 504.95195312 125.6875 504.34765625 C123.54246532 503.1249081 121.40361728 501.89124502 119.27099609 500.64697266 C115.3538953 498.36285848 111.40666404 496.13485157 107.45629883 493.90893555 C105.55970846 492.83953791 103.66502663 491.76674877 101.7722168 490.69067383 C94.93723398 486.80767695 88.04707525 483.03770479 81.125 479.3125 C72.27390266 474.54916689 63.50523423 469.65884397 54.76953125 464.6875 C46.95509864 460.25256962 39.07093018 455.95679046 31.1472168 451.72045898 C25.93001556 448.91968169 20.77543477 446.04540579 15.67578125 443.03515625 C14.10666992 442.11669922 14.10666992 442.11669922 12.50585938 441.1796875 C10.50193954 440.00106119 8.50663523 438.80762763 6.52148438 437.59765625 C5.62365234 437.07171875 4.72582031 436.54578125 3.80078125 436.00390625 C3.01614502 435.53154541 2.23150879 435.05918457 1.4230957 434.57250977 C-0.90829541 433.56068043 -0.90829541 433.56068043 -3.42749023 434.55517578 C-4.23516846 434.97009277 -5.04284668 435.38500977 -5.875 435.8125 C-6.51743652 436.12227783 -7.15987305 436.43205566 -7.82177734 436.7512207 C-9.96665651 437.87189096 -12.11060909 438.99387121 -14.25 440.125 C-15.49197144 440.77988403 -15.49197144 440.77988403 -16.7590332 441.44799805 C-24.24188805 445.42267808 -31.61041933 449.58890538 -38.97216797 453.7824707 C-45.89252221 457.71639328 -52.86472671 461.54141328 -59.875 465.3125 C-67.7611695 469.55634742 -75.59150689 473.88314583 -83.375 478.3125 C-92.25883222 483.36708105 -101.21176852 488.27865821 -110.20874023 493.12866211 C-116.47286854 496.50665665 -122.7179852 499.91551304 -128.9375 503.375 C-129.64495361 503.76840576 -130.35240723 504.16181152 -131.08129883 504.56713867 C-131.74669678 504.93814697 -132.41209473 505.30915527 -133.09765625 505.69140625 C-134.04934692 506.21855225 -134.04934692 506.21855225 -135.02026367 506.75634766 C-136.2644897 507.46485388 -137.49414321 508.19953665 -138.70825195 508.95849609 C-144.47292523 512.5133911 -149.27643964 512.72106394 -155.875 511.8125 C-160.33779226 509.66079659 -163.1108803 506.90749214 -165.875 502.8125 C-169.21592363 493.19478773 -165.09689261 480.11864086 -163.46655273 470.38696289 C-163.21961374 468.88749096 -162.97317878 467.38793596 -162.72720337 465.88830566 C-162.20109703 462.68714557 -161.67159973 459.4865726 -161.13937187 456.28642464 C-160.29737794 451.22297219 -159.46379446 446.15815638 -158.63136292 441.09312439 C-157.01502592 431.26513809 -155.39078842 421.4384664 -153.76524353 411.61199951 C-151.69206991 399.07891001 -149.62098422 386.54548449 -147.56015354 374.01035875 C-146.73245026 368.97765783 -145.89999785 363.94577281 -145.0638293 358.91447175 C-144.54514421 355.78772181 -144.03041751 352.66032955 -143.51674271 349.53275299 C-143.2781675 348.08529252 -143.03794167 346.63810298 -142.79592705 345.19121361 C-142.46530513 343.21321872 -142.1411825 341.23414078 -141.81736755 339.25502014 C-141.54277789 337.59623132 -141.54277789 337.59623132 -141.26264095 335.90393162 C-140.38213494 330.27870622 -140.38213494 330.27870622 -141.92884827 325.04385376 C-142.42291672 324.56612518 -142.91698517 324.08839661 -143.42602539 323.59619141 C-143.98403336 323.04186432 -144.54204132 322.48753723 -145.11695862 321.91641235 C-145.72933884 321.3381369 -146.34171906 320.75986145 -146.97265625 320.1640625 C-147.59973984 319.54784027 -148.22682343 318.93161804 -148.87290955 318.29672241 C-150.88075215 316.32901083 -152.90804272 314.38288837 -154.9375 312.4375 C-156.93760657 310.4951888 -158.93342253 308.54860062 -160.92710876 306.59970093 C-162.16690014 305.39051402 -163.41104193 304.18576422 -164.66041565 302.98648071 C-168.34552829 299.424878 -171.74348815 295.70914318 -175.08958435 291.82894897 C-178.09147938 288.43860782 -181.31032134 285.27440973 -184.53125 282.09375 C-185.23721313 281.39157349 -185.94317627 280.68939697 -186.67053223 279.96594238 C-188.90291358 277.74565397 -191.13852111 275.52866045 -193.375 273.3125 C-196.32590378 270.38840521 -199.27333203 267.46086943 -202.21875 264.53125 C-202.88249634 263.875802 -203.54624268 263.220354 -204.23010254 262.54504395 C-207.39933746 259.39222889 -210.45413207 256.19554391 -213.375 252.81030273 C-216.90794048 248.71757234 -220.67664872 244.9170983 -224.53125 241.12890625 C-225.98060481 239.69219453 -227.42981929 238.25534124 -228.87890625 236.81835938 C-231.12808901 234.59394951 -233.37886074 232.37119647 -235.63232422 230.15112305 C-237.83233451 227.98158182 -240.02585897 225.80563996 -242.21875 223.62890625 C-242.88249634 222.97861954 -243.54624268 222.32833282 -244.23010254 221.65834045 C-257.96045217 208.00075465 -257.96045217 208.00075465 -258.25 199.125 C-258.20222429 194.14438192 -257.60798441 191.13623488 -254.5546875 187.21484375 C-250.3030364 183.66520946 -245.63674149 182.36283499 -240.25802612 181.54060364 C-239.61868767 181.44003511 -238.97934922 181.33946658 -238.32063687 181.23585051 C-236.19412801 180.90386275 -234.06572176 180.58634066 -231.93701172 180.26879883 C-230.40555734 180.03276856 -228.87423922 179.79585277 -227.3430481 179.55812073 C-223.19587814 178.91687629 -219.04688693 178.2882326 -214.89742422 177.66201997 C-210.55271587 177.00431763 -206.20970956 176.33555771 -201.8664856 175.6681366 C-194.5759109 174.54941535 -187.28421555 173.43826577 -179.99169922 172.33227539 C-170.63043777 170.91250206 -161.27107766 169.48058089 -151.91227531 168.04469776 C-143.86400532 166.80994855 -135.81493984 165.58041547 -127.76571512 164.35190749 C-125.17877182 163.95689143 -122.59192811 163.56122783 -120.00509262 163.16550636 C-115.94261297 162.54441946 -111.87965231 161.92657657 -107.81629562 161.3112545 C-106.32458598 161.08491144 -104.83302878 160.85756104 -103.34163666 160.62913513 C-101.3075045 160.3177837 -99.27284693 160.01012925 -97.23800659 159.70344543 C-96.09908903 159.53035764 -94.96017147 159.35726984 -93.78674126 159.17893696 C-90.875 158.8125 -90.875 158.8125 -86.875 158.8125 C-86.61178955 157.96768066 -86.3485791 157.12286133 -86.07739258 156.25244141 C-84.81447945 152.63935594 -83.28543619 149.22046739 -81.63671875 145.7734375 C-81.32000214 145.10391052 -81.00328552 144.43438354 -80.67697144 143.74456787 C-79.99649439 142.30690073 -79.31450296 140.86994958 -78.63113403 139.43365479 C-76.80206875 135.5891546 -74.98399762 131.73945327 -73.1640625 127.890625 C-72.79666458 127.1144986 -72.42926666 126.33837219 -72.05073547 125.53872681 C-68.80988641 118.68834147 -65.61737617 111.8164158 -62.4375 104.9375 C-56.81996431 92.80362291 -51.12147288 80.70903221 -45.40283203 68.62255859 C-44.67999103 67.09473696 -43.95717207 65.56690491 -43.234375 64.0390625 C-42.87532074 63.28011688 -42.51626648 62.52117126 -42.14633179 61.73922729 C-39.59280626 56.33861414 -37.05137287 50.93241778 -34.515625 45.5234375 C-33.80250117 44.00341284 -33.08936655 42.48339324 -32.3762207 40.96337891 C-31.36433515 38.80643312 -30.35304106 36.64922385 -29.34408569 34.49090576 C-27.51918427 30.5873271 -25.67858768 26.6918677 -23.81951904 22.80444336 C-22.81295014 20.68163995 -21.82937851 18.54883807 -20.84423828 16.41601562 C-20.15878297 14.96962268 -19.47244619 13.52364708 -18.78515625 12.078125 C-18.48258408 11.40924255 -18.1800119 10.74036011 -17.86827087 10.0512085 C-15.36763121 4.87526021 -12.20051635 2.03603904 -6.8046875 0.05078125 C-4.47304969 -0.23713354 -2.34267397 -0.19339832 0 0 Z " fill="#FEC006" transform="translate(257.875,0.1875)"/>
<path d="M0 0 C0.82242187 0.05542969 1.64484375 0.11085937 2.4921875 0.16796875 C7.28390866 1.34101622 10.3104319 3.5440518 12.96875 7.68359375 C13.78859375 9.44896484 13.78859375 9.44896484 14.625 11.25 C15.3085911 12.69140751 15.9921851 14.13281364 16.67578125 15.57421875 C17.05686035 16.39325684 17.43793945 17.21229492 17.83056641 18.05615234 C19.28937636 21.16252058 20.78835331 24.24759186 22.29296875 27.33203125 C28.67532859 40.42863004 34.9146204 53.58493425 41.02490234 66.81103516 C45.44694183 76.37645849 49.93214075 85.91106187 54.4375 95.4375 C55.15430536 96.95360927 55.87110223 98.46972255 56.58789062 99.98583984 C57.67037632 102.27530381 58.75290917 104.56474543 59.83557129 106.85412598 C63.52611651 114.65877581 67.21077151 122.46619258 70.88973999 130.27630615 C71.57866864 131.73844098 72.26796863 133.20040092 72.95767212 134.66217041 C83.125 156.21188245 83.125 156.21188245 83.125 158.8125 C83.97327866 158.90081589 84.82155731 158.98913177 85.69554138 159.0801239 C101.45263284 160.82423346 117.11287342 163.27444667 132.78515625 165.64453125 C133.94425542 165.81973569 133.94425542 165.81973569 135.12677073 165.9984796 C142.43219053 167.10306912 149.73722769 168.21015974 157.04139042 169.32303333 C166.32269822 170.73696549 175.60570311 172.13843824 184.89137179 173.52345067 C191.46022315 174.50428892 198.02683898 175.49927184 204.59197515 176.50467318 C208.49859152 177.10255247 212.40590412 177.69426715 216.31575203 178.27066994 C219.98500019 178.81189611 223.65115425 179.37066907 227.3157196 179.9427166 C229.28978805 180.24633966 231.26663242 180.53174214 233.24351501 180.81646729 C241.24260829 182.08791608 247.85177144 183.76147456 253.09765625 190.25390625 C254.29568267 193.23758423 254.55836527 195.53731862 254.5625 198.75 C254.58183594 199.74902344 254.60117187 200.74804688 254.62109375 201.77734375 C253.55474155 208.30140405 248.24225496 213.08381389 243.83984375 217.72265625 C243.22954819 218.37089859 242.61925262 219.01914093 241.99046326 219.68702698 C235.0412715 227.0257723 227.87112104 234.14198655 220.6875 241.25 C218.0815991 243.82899301 215.47928086 246.41153008 212.87890625 248.99609375 C212.30274063 249.56396103 211.72657501 250.13182831 211.13294983 250.71690369 C208.19480036 253.63756306 205.38888655 256.6195345 202.68139648 259.75610352 C199.12227207 263.87120527 195.33861547 267.70976665 191.46875 271.53125 C190.4098053 272.58451477 190.4098053 272.58451477 189.32946777 273.65905762 C186.34602625 276.62633766 183.3565929 279.58755363 180.36767578 282.54931641 C178.17009421 284.72868465 175.97562062 286.91114947 173.78125 289.09375 C173.11750366 289.749198 172.45375732 290.404646 171.76989746 291.07995605 C168.55131256 294.28186541 165.45751424 297.53270336 162.4921875 300.97167969 C159.7036958 304.20329086 156.76811373 307.12331615 153.59375 309.984375 C152.60761562 310.90436774 151.62328943 311.82630185 150.640625 312.75 C149.13021006 314.16786018 147.61403706 315.57222807 146.06445312 316.94726562 C144.54246778 318.30419329 143.06744248 319.70036438 141.59375 321.109375 C140.71138672 321.91729492 139.82902344 322.72521484 138.91992188 323.55761719 C134.38238913 331.78590698 139.04182781 345.19126015 140.53344727 354.10864258 C140.78032023 355.60635527 141.0267574 357.10413986 141.27279663 358.60198975 C141.79939213 361.80253631 142.32886737 365.00258767 142.86062813 368.20228004 C143.70200538 373.26602729 144.53587506 378.33099377 145.36863708 383.39616394 C147.4366646 395.96740259 149.51490294 408.53695069 151.59423828 421.10632324 C153.21371856 430.8968087 154.83056659 440.68771448 156.43984646 450.47988242 C157.26707393 455.51154978 158.099586 460.54230488 158.9361707 465.57242453 C159.45539224 468.70132196 159.96995522 471.83097252 160.48325729 474.96084595 C160.72155343 476.40793159 160.96176693 477.85470305 161.20407295 479.30112267 C161.53544965 481.28088543 161.85921151 483.26191823 162.18263245 485.24299622 C162.36569222 486.34923245 162.548752 487.45546869 162.73735905 488.59522724 C163.52960174 495.17054089 163.38913481 499.93705734 160.125 505.8125 C156.00255799 510.07785333 152.60606961 511.9934302 146.70703125 512.23046875 C139.56394038 512.1570699 134.84741695 509.72477502 128.8125 506.125 C127.78125 505.53847656 126.75 504.95195312 125.6875 504.34765625 C123.54246532 503.1249081 121.40361728 501.89124502 119.27099609 500.64697266 C115.3538953 498.36285848 111.40666404 496.13485157 107.45629883 493.90893555 C105.55970846 492.83953791 103.66502663 491.76674877 101.7722168 490.69067383 C94.93723398 486.80767695 88.04707525 483.03770479 81.125 479.3125 C72.27390266 474.54916689 63.50523423 469.65884397 54.76953125 464.6875 C46.95509864 460.25256962 39.07093018 455.95679046 31.1472168 451.72045898 C25.93001556 448.91968169 20.77543477 446.04540579 15.67578125 443.03515625 C14.10666992 442.11669922 14.10666992 442.11669922 12.50585938 441.1796875 C10.50193954 440.00106119 8.50663523 438.80762763 6.52148438 437.59765625 C5.62365234 437.07171875 4.72582031 436.54578125 3.80078125 436.00390625 C3.01614502 435.53154541 2.23150879 435.05918457 1.4230957 434.57250977 C-0.90829541 433.56068043 -0.90829541 433.56068043 -3.42749023 434.55517578 C-4.23516846 434.97009277 -5.04284668 435.38500977 -5.875 435.8125 C-6.51743652 436.12227783 -7.15987305 436.43205566 -7.82177734 436.7512207 C-9.96665651 437.87189096 -12.11060909 438.99387121 -14.25 440.125 C-15.49197144 440.77988403 -15.49197144 440.77988403 -16.7590332 441.44799805 C-24.24188805 445.42267808 -31.61041933 449.58890538 -38.97216797 453.7824707 C-45.89252221 457.71639328 -52.86472671 461.54141328 -59.875 465.3125 C-67.7611695 469.55634742 -75.59150689 473.88314583 -83.375 478.3125 C-92.25883222 483.36708105 -101.21176852 488.27865821 -110.20874023 493.12866211 C-116.47286854 496.50665665 -122.7179852 499.91551304 -128.9375 503.375 C-129.64495361 503.76840576 -130.35240723 504.16181152 -131.08129883 504.56713867 C-131.74669678 504.93814697 -132.41209473 505.30915527 -133.09765625 505.69140625 C-134.04934692 506.21855225 -134.04934692 506.21855225 -135.02026367 506.75634766 C-136.2644897 507.46485388 -137.49414321 508.19953665 -138.70825195 508.95849609 C-144.47292523 512.5133911 -149.27643964 512.72106394 -155.875 511.8125 C-160.33779226 509.66079659 -163.1108803 506.90749214 -165.875 502.8125 C-169.21592363 493.19478773 -165.09689261 480.11864086 -163.46655273 470.38696289 C-163.21961374 468.88749096 -162.97317878 467.38793596 -162.72720337 465.88830566 C-162.20109703 462.68714557 -161.67159973 459.4865726 -161.13937187 456.28642464 C-160.29737794 451.22297219 -159.46379446 446.15815638 -158.63136292 441.09312439 C-157.01502592 431.26513809 -155.39078842 421.4384664 -153.76524353 411.61199951 C-151.69206991 399.07891001 -149.62098422 386.54548449 -147.56015354 374.01035875 C-146.73245026 368.97765783 -145.89999785 363.94577281 -145.0638293 358.91447175 C-144.54514421 355.78772181 -144.03041751 352.66032955 -143.51674271 349.53275299 C-143.2781675 348.08529252 -143.03794167 346.63810298 -142.79592705 345.19121361 C-142.46530513 343.21321872 -142.1411825 341.23414078 -141.81736755 339.25502014 C-141.54277789 337.59623132 -141.54277789 337.59623132 -141.26264095 335.90393162 C-140.38213494 330.27870622 -140.38213494 330.27870622 -141.92884827 325.04385376 C-142.42291672 324.56612518 -142.91698517 324.08839661 -143.42602539 323.59619141 C-143.98403336 323.04186432 -144.54204132 322.48753723 -145.11695862 321.91641235 C-145.72933884 321.3381369 -146.34171906 320.75986145 -146.97265625 320.1640625 C-147.59973984 319.54784027 -148.22682343 318.93161804 -148.87290955 318.29672241 C-150.88075215 316.32901083 -152.90804272 314.38288837 -154.9375 312.4375 C-156.93760657 310.4951888 -158.93342253 308.54860062 -160.92710876 306.59970093 C-162.16690014 305.39051402 -163.41104193 304.18576422 -164.66041565 302.98648071 C-168.34552829 299.424878 -171.74348815 295.70914318 -175.08958435 291.82894897 C-178.09147938 288.43860782 -181.31032134 285.27440973 -184.53125 282.09375 C-185.23721313 281.39157349 -185.94317627 280.68939697 -186.67053223 279.96594238 C-188.90291358 277.74565397 -191.13852111 275.52866045 -193.375 273.3125 C-196.32590378 270.38840521 -199.27333203 267.46086943 -202.21875 264.53125 C-202.88249634 263.875802 -203.54624268 263.220354 -204.23010254 262.54504395 C-207.39933746 259.39222889 -210.45413207 256.19554391 -213.375 252.81030273 C-216.90794048 248.71757234 -220.67664872 244.9170983 -224.53125 241.12890625 C-225.98060481 239.69219453 -227.42981929 238.25534124 -228.87890625 236.81835938 C-231.12808901 234.59394951 -233.37886074 232.37119647 -235.63232422 230.15112305 C-237.83233451 227.98158182 -240.02585897 225.80563996 -242.21875 223.62890625 C-242.88249634 222.97861954 -243.54624268 222.32833282 -244.23010254 221.65834045 C-257.96045217 208.00075465 -257.96045217 208.00075465 -258.25 199.125 C-258.20222429 194.14438192 -257.60798441 191.13623488 -254.5546875 187.21484375 C-250.3030364 183.66520946 -245.63674149 182.36283499 -240.25802612 181.54060364 C-239.61868767 181.44003511 -238.97934922 181.33946658 -238.32063687 181.23585051 C-236.19412801 180.90386275 -234.06572176 180.58634066 -231.93701172 180.26879883 C-230.40555734 180.03276856 -228.87423922 179.79585277 -227.3430481 179.55812073 C-223.19587814 178.91687629 -219.04688693 178.2882326 -214.89742422 177.66201997 C-210.55271587 177.00431763 -206.20970956 176.33555771 -201.8664856 175.6681366 C-194.5759109 174.54941535 -187.28421555 173.43826577 -179.99169922 172.33227539 C-170.63043777 170.91250206 -161.27107766 169.48058089 -151.91227531 168.04469776 C-143.86400532 166.80994855 -135.81493984 165.58041547 -127.76571512 164.35190749 C-125.17877182 163.95689143 -122.59192811 163.56122783 -120.00509262 163.16550636 C-115.94261297 162.54441946 -111.87965231 161.92657657 -107.81629562 161.3112545 C-106.32458598 161.08491144 -104.83302878 160.85756104 -103.34163666 160.62913513 C-101.3075045 160.3177837 -99.27284693 160.01012925 -97.23800659 159.70344543 C-96.09908903 159.53035764 -94.96017147 159.35726984 -93.78674126 159.17893696 C-90.875 158.8125 -90.875 158.8125 -86.875 158.8125 C-86.61178955 157.96768066 -86.3485791 157.12286133 -86.07739258 156.25244141 C-84.81447945 152.63935594 -83.28543619 149.22046739 -81.63671875 145.7734375 C-81.32000214 145.10391052 -81.00328552 144.43438354 -80.67697144 143.74456787 C-79.99649439 142.30690073 -79.31450296 140.86994958 -78.63113403 139.43365479 C-76.80206875 135.5891546 -74.98399762 131.73945327 -73.1640625 127.890625 C-72.79666458 127.1144986 -72.42926666 126.33837219 -72.05073547 125.53872681 C-68.80988641 118.68834147 -65.61737617 111.8164158 -62.4375 104.9375 C-56.81996431 92.80362291 -51.12147288 80.70903221 -45.40283203 68.62255859 C-44.67999103 67.09473696 -43.95717207 65.56690491 -43.234375 64.0390625 C-42.87532074 63.28011688 -42.51626648 62.52117126 -42.14633179 61.73922729 C-39.59280626 56.33861414 -37.05137287 50.93241778 -34.515625 45.5234375 C-33.80250117 44.00341284 -33.08936655 42.48339324 -32.3762207 40.96337891 C-31.36433515 38.80643312 -30.35304106 36.64922385 -29.34408569 34.49090576 C-27.51918427 30.5873271 -25.67858768 26.6918677 -23.81951904 22.80444336 C-22.81295014 20.68163995 -21.82937851 18.54883807 -20.84423828 16.41601562 C-20.15878297 14.96962268 -19.47244619 13.52364708 -18.78515625 12.078125 C-18.48258408 11.40924255 -18.1800119 10.74036011 -17.86827087 10.0512085 C-15.36763121 4.87526021 -12.20051635 2.03603904 -6.8046875 0.05078125 C-4.47304969 -0.23713354 -2.34267397 -0.19339832 0 0 Z M-2.875 54.8125 C-10.30461791 70.08533301 -17.65027275 85.38819053 -24.77294922 100.80712891 C-29.89870225 111.8937726 -35.10585665 122.94123377 -40.34008789 133.97705078 C-43.66756837 140.99658859 -46.98147599 148.02102646 -50.22990417 155.07757568 C-51.67647192 158.2194124 -53.13056027 161.35774511 -54.58480835 164.49603271 C-55.2712651 165.98350002 -55.95382698 167.47277177 -56.63223267 168.96392822 C-57.57312164 171.03142456 -58.52730732 173.09229786 -59.484375 175.15234375 C-60.02030273 176.32144287 -60.55623047 177.49054199 -61.10839844 178.69506836 C-63.68394055 183.23999611 -66.86758596 187.0048177 -71.875 188.8125 C-74.04742034 189.2507582 -76.2357602 189.61247092 -78.4296875 189.92578125 C-79.39706596 190.06756805 -79.39706596 190.06756805 -80.38398743 190.21221924 C-81.77651548 190.41579606 -83.16948587 190.61636533 -84.56283569 190.8142395 C-88.30828446 191.34640689 -92.05051208 191.90036988 -95.79296875 192.453125 C-96.9393557 192.62171776 -96.9393557 192.62171776 -98.10890198 192.79371643 C-105.44576006 193.88035766 -112.75259598 195.11975904 -120.0625 196.375 C-132.70905482 198.5297166 -145.37465912 200.28826953 -158.09765625 201.91796875 C-170.00756117 203.46095238 -181.84529977 205.45112197 -193.6875 207.4375 C-195.0735548 207.66934799 -196.45962245 207.9011192 -197.84570312 208.1328125 C-201.1889284 208.69195819 -204.53202392 209.25186673 -207.875 209.8125 C-206.24243754 213.99417326 -203.1663425 216.75717643 -200.01953125 219.828125 C-199.43966965 220.40278503 -198.85980804 220.97744507 -198.26237488 221.56951904 C-196.4087814 223.40534019 -194.5486614 225.23435415 -192.6875 227.0625 C-190.84501075 228.87715708 -189.00408013 230.69332553 -187.16618347 232.51263428 C-186.02476186 233.64203285 -184.88068243 234.76875477 -183.73335266 235.89215088 C-180.84497292 238.74517717 -178.09920222 241.66531924 -175.44604492 244.73925781 C-171.88191934 248.86006171 -168.09400788 252.70444166 -164.21875 256.53125 C-163.51278687 257.23342651 -162.80682373 257.93560303 -162.07946777 258.65905762 C-159.84708642 260.87934603 -157.61147889 263.09633955 -155.375 265.3125 C-152.42409622 268.23659479 -149.47666797 271.16413057 -146.53125 274.09375 C-145.86750366 274.749198 -145.20375732 275.404646 -144.51989746 276.07995605 C-140.67187639 279.90804045 -137.04539242 283.85889718 -133.49951172 287.96759033 C-131.27302514 290.49614495 -128.89976692 292.84778887 -126.484375 295.1953125 C-125.51794955 296.14424656 -124.5518118 297.0934737 -123.5859375 298.04296875 C-122.099231 299.49864062 -120.61027068 300.95177648 -119.11621094 302.39990234 C-117.64871424 303.82485598 -116.19102307 305.25928182 -114.734375 306.6953125 C-113.87295898 307.53465332 -113.01154297 308.37399414 -112.12402344 309.23876953 C-108.21758181 313.70921109 -106.42488198 317.59177549 -106.67089844 323.57958984 C-107.0716576 327.96397176 -107.76552452 332.28565665 -108.5 336.625 C-108.6738623 337.68307861 -108.84772461 338.74115723 -109.02685547 339.83129883 C-110.12567438 346.47295406 -111.26615588 353.10751829 -112.40625 359.7421875 C-112.53776459 360.50780502 -112.66927917 361.27342255 -112.80477905 362.0622406 C-113.454941 365.84343779 -114.10829496 369.62403171 -114.76806641 373.40356445 C-115.88866166 379.84902638 -116.96694105 386.28868487 -117.8671875 392.76953125 C-119.11494656 401.74123884 -120.70877212 410.65060318 -122.27050781 419.57177734 C-123.79109869 428.27461324 -125.23741985 436.96990734 -126.43310547 445.72436523 C-127.03025761 449.89750192 -127.75984237 454.04304886 -128.5078125 458.19140625 C-128.86906995 460.77016951 -128.9408228 463.21249942 -128.875 465.8125 C-119.58266714 461.33031591 -110.5953973 456.3798146 -101.59960938 451.33740234 C-96.42706344 448.44244518 -91.24424148 445.56595496 -86.0625 442.6875 C-84.91885986 442.05199219 -83.77521973 441.41648437 -82.59692383 440.76171875 C-68.04585517 432.67833908 -53.4653396 424.64828786 -38.88671875 416.61474609 C-35.56200321 414.78263761 -32.23756488 412.95002688 -28.91326904 411.11715698 C-27.05130145 410.09077905 -25.18898919 409.06502857 -23.32666016 408.03930664 C-22.19019043 407.4127417 -21.0537207 406.78617676 -19.8828125 406.140625 C-18.82876221 405.56022461 -17.77471191 404.97982422 -16.6887207 404.38183594 C-14.3707905 403.08902419 -12.08281532 401.76066969 -9.80078125 400.40625 C-5.5634487 398.09806351 -2.57685053 397.74298035 2.125 398.8125 C12.57966755 403.02630842 22.30126606 409.10742908 32.07080078 414.68041992 C39.03867193 418.65450606 46.0600426 422.51399371 53.125 426.3125 C61.96820526 431.07108885 70.72933774 435.95618697 79.45629883 440.92431641 C87.53197527 445.5086889 95.68963699 449.93180665 103.86743164 454.33081055 C110.07331741 457.67657895 116.20287465 461.10531256 122.24609375 464.73828125 C123.90897046 465.89522222 123.90897046 465.89522222 125.125 465.8125 C125.00756381 464.18693587 124.88050539 462.56206712 124.75 460.9375 C124.68039062 460.03257812 124.61078125 459.12765625 124.5390625 458.1953125 C124.1996527 455.42239849 123.73427437 452.7813836 123.16796875 450.05078125 C122.12930617 445.01364405 121.44633989 439.97626559 120.8125 434.875 C119.69979205 426.29294401 118.25156645 417.81135501 116.625 409.3125 C115.06669884 401.16425393 113.66754134 393.0429699 112.625 384.8125 C111.57921295 376.56248662 110.18105502 368.41885902 108.625 360.25 C107.03803872 351.89398143 105.53482803 343.54287664 104.3125 335.125 C104.18875 334.29476318 104.065 333.46452637 103.9375 332.60913086 C103.6204989 330.34560315 103.35206248 328.08671269 103.125 325.8125 C103.05490723 325.11688965 102.98481445 324.4212793 102.91259766 323.70458984 C102.58759885 317.78507004 104.75987615 313.609209 108.48130798 309.20869446 C110.01011728 307.59932515 111.57930603 306.04613238 113.17578125 304.50390625 C113.75281296 303.93349106 114.32984467 303.36307587 114.92436218 302.77537537 C116.75502634 300.96791645 118.59557703 299.17097766 120.4375 297.375 C122.26695725 295.58091565 124.09413123 293.78459205 125.91850281 291.9853363 C127.04832247 290.87213553 128.18122695 289.76205232 129.31794739 288.65589905 C132.19284444 285.83422506 134.91702534 282.94241149 137.54956055 279.89233398 C141.11484687 275.76885636 144.90401864 271.92250715 148.78125 268.09375 C149.8401947 267.04048523 149.8401947 267.04048523 150.92053223 265.96594238 C153.90397375 262.99866234 156.8934071 260.03744637 159.88232422 257.07568359 C162.07990579 254.89631535 164.27437938 252.71385053 166.46875 250.53125 C167.13249634 249.875802 167.79624268 249.220354 168.48010254 248.54504395 C172.32106903 244.72397758 175.94096666 240.78083284 179.4803772 236.67974854 C181.82430744 234.01853022 184.30730108 231.55376721 186.83984375 229.0703125 C187.86535651 228.05741531 188.89074382 227.04439109 189.91601562 226.03125 C191.50314045 224.46915243 193.09186529 222.90874086 194.68286133 221.35058594 C196.23949651 219.82396331 197.79000464 218.29132953 199.33984375 216.7578125 C200.25886475 215.85562988 201.17788574 214.95344727 202.12475586 214.02392578 C204.34860276 212.06226336 204.34860276 212.06226336 204.125 209.8125 C197.05193346 208.29194989 189.99110292 207.19467808 182.8125 206.3125 C174.55796241 205.28561973 166.34267406 204.10086638 158.125 202.8125 C155.67167571 202.43322349 153.21813032 202.05539545 150.7645874 201.67753601 C146.07181573 200.95433199 141.37962195 200.22740595 136.6875 199.5 C135.20357254 199.26997787 135.20357254 199.26997787 133.68966675 199.03530884 C120.02411117 196.9143092 106.37038577 194.73931502 92.73852539 192.41088867 C85.88148909 191.24472604 79.0184786 190.21171814 72.125 189.28295898 C63.75240769 187.96997189 63.75240769 187.96997189 60.88789368 184.17245483 C57.97706991 179.39304752 55.41072087 174.54534788 53.04296875 169.4765625 C52.67179428 168.69246002 52.30061981 167.90835754 51.91819763 167.10049438 C50.71152937 164.54838295 49.51193519 161.9930177 48.3125 159.4375 C47.46640002 157.64400897 46.61987728 155.85071733 45.77294922 154.05761719 C43.62628892 149.50980978 41.48543944 144.95929279 39.3460083 140.40808105 C37.49378621 136.47068557 35.63543574 132.53619029 33.77734375 128.6015625 C27.01969631 114.28356448 20.31604979 99.94148233 13.66381836 85.57421875 C8.89378483 75.28380934 4.03106873 65.0386659 -0.875 54.8125 C-1.535 54.8125 -2.195 54.8125 -2.875 54.8125 Z " fill="#000000" transform="translate(257.875,0.1875)"/>
</svg>
